<?xml version="1.0" standalone="no"?>
<!DOCTYPE svg PUBLIC "-//W3C//DTD SVG 1.1//EN" "http://www.w3.org/Graphics/SVG/1.1/DTD/svg11.dtd" >
<svg xmlns="http://www.w3.org/2000/svg" xmlns:xlink="http://www.w3.org/1999/xlink" version="1.1">
<metadata>
Created by FontForge 20170731 at Wed Aug 26 23:23:42 2015
 By Aleksey,,,
Copyright (c)2012 by TypeTogether. All rights reserved.
</metadata>
<defs>
<font id="AdelleSans-Regular" horiz-adv-x="1554" >
  <font-face 
    font-family="Adelle Sans"
    font-weight="400"
    font-stretch="normal"
    units-per-em="2048"
    panose-1="2 0 5 3 0 0 0 2 0 4"
    ascent="1546"
    descent="-502"
    x-height="1053"
    cap-height="1483"
    bbox="-145 -475 2144 1870"
    underline-thickness="102"
    underline-position="-816"
    unicode-range="U+0020-FB04"
  />
<missing-glyph horiz-adv-x="748" 
d="M68 0v1365h544v-1365h-544zM136 68h408v1229h-408v-1229z" />
    <glyph glyph-name="uniFB01" unicode="fi" horiz-adv-x="1171" 
d="M33 903v150h155v170q0 171 79 257.5t229 86.5q92 0 168 -31l-7 -145q-61 22 -129 22q-74 0 -113.5 -41t-39.5 -141v-178h639v-1053h-187v903h-452v-903h-187v903h-155zM791 1395q0 65 34.5 99t96.5 34q64 0 98.5 -34t34.5 -99t-34.5 -99t-98.5 -34q-62 0 -96.5 34
t-34.5 99z" />
    <glyph glyph-name="uniFB02" unicode="fl" horiz-adv-x="1171" 
d="M33 903v150h155v170q0 171 79 257.5t229 86.5q111 0 188 -35l-8 -143q-74 24 -146 24q-75 0 -115 -41t-40 -141v-178h284v-150h-284v-903h-187v903h-155zM827 0v1546h187v-1546h-187z" />
    <glyph glyph-name="uniFB03" unicode="ffi" horiz-adv-x="1810" 
d="M33 903v150h155v170q0 171 79 257.5t229 86.5q111 0 188 -35l-8 -143q-74 24 -146 24q-75 0 -115 -41t-40 -141v-178h452v170q0 171 79 257.5t229 86.5q92 0 168 -31l-7 -145q-61 22 -129 22q-74 0 -113.5 -41t-39.5 -141v-178h639v-1053h-187v903h-452v-903h-187v903
h-452v-903h-187v903h-155zM1430 1395q0 65 34.5 99t96.5 34q64 0 98.5 -34t34.5 -99t-34.5 -99t-98.5 -34q-62 0 -96.5 34t-34.5 99z" />
    <glyph glyph-name="uniFB04" unicode="ffl" horiz-adv-x="1810" 
d="M33 903v150h155v170q0 171 79 257.5t229 86.5q111 0 188 -35l-8 -143q-74 24 -146 24q-75 0 -115 -41t-40 -141v-178h452v170q0 171 79 257.5t229 86.5q111 0 188 -35l-8 -143q-74 24 -146 24q-75 0 -115 -41t-40 -141v-178h284v-150h-284v-903h-187v903h-452v-903h-187
v903h-155zM1466 0v1546h187v-1546h-187z" />
    <glyph glyph-name=".notdef" horiz-adv-x="748" 
d="M68 0v1365h544v-1365h-544zM136 68h408v1229h-408v-1229z" />
    <glyph glyph-name="glyph1" horiz-adv-x="0" 
 />
    <glyph glyph-name="glyph2" horiz-adv-x="682" 
 />
    <glyph glyph-name="space" unicode=" " horiz-adv-x="438" 
 />
    <glyph glyph-name="exclam" unicode="!" horiz-adv-x="544" 
d="M137 106q0 134 137 134q138 0 138 -134q0 -131 -138 -131q-137 0 -137 131zM168 1483h209l-33 -1098h-141z" />
    <glyph glyph-name="quotedbl" unicode="&#x22;" horiz-adv-x="739" 
d="M119 952v531h184v-531h-184zM436 952v531h185v-531h-185z" />
    <glyph glyph-name="numbersign" unicode="#" horiz-adv-x="1243" 
d="M70 295l32 141h226l47 297h-236l29 144h227l39 268h150l-41 -268h243l39 268h150l-41 -268h235l-26 -144h-230l-43 -297h234l-29 -141h-225l-45 -295h-148l45 295h-247l-45 -295h-148l43 295h-235zM475 436h248l43 297h-244z" />
    <glyph glyph-name="dollar" unicode="$" horiz-adv-x="1083" 
d="M61 399l170 35q13 -69 29 -114t43.5 -81.5t70 -55.5t103.5 -25v493q-63 17 -110 34.5t-97.5 49.5t-82.5 72.5t-53 102t-21 139.5q0 171 99 272.5t259 122.5v178h156v-172q152 -14 239.5 -101.5t110.5 -263.5l-172 -26q-19 99 -60.5 157t-123.5 76v-491
q86 -23 145.5 -49.5t115 -71t83.5 -113t28 -161.5q0 -170 -98 -271t-272 -125v-176h-154v174q-83 6 -148 28t-121 65.5t-91.5 118.5t-47.5 179zM297 1073q0 -86 41 -140.5t139 -90.5v450q-97 -19 -138.5 -78.5t-41.5 -140.5zM621 162q188 38 188 227q0 94 -49 144.5
t-139 78.5v-450z" />
    <glyph glyph-name="percent" unicode="%" horiz-adv-x="1640" 
d="M57 1126q0 173 88.5 278t255.5 105q166 0 245 -94t79 -262q0 -176 -88.5 -281.5t-251.5 -105.5q-89 0 -154.5 29t-102.5 80.5t-54 113.5t-17 137zM219 1139q0 -115 38.5 -176.5t133.5 -61.5t133.5 62t38.5 182q0 111 -37 171t-131 60q-40 0 -71 -13t-50.5 -35t-32 -53
t-17.5 -64t-5 -72zM254 -33l899 1516h166l-897 -1516h-168zM879 336q0 173 88.5 278t255.5 105q166 0 244.5 -94t78.5 -263q0 -176 -88.5 -281.5t-251.5 -105.5q-89 0 -154.5 29t-102 81t-53.5 114t-17 137zM1040 348q0 -115 38.5 -176t133.5 -61t133.5 61.5t38.5 181.5
q0 112 -37 172t-130 60q-49 0 -85 -19.5t-55.5 -54t-28 -75t-8.5 -89.5z" />
    <glyph glyph-name="ampersand" unicode="&#x26;" horiz-adv-x="1431" 
d="M115 381q0 145 68 242t208 168q-80 143 -80 294q0 147 106 246t269 99q58 0 108 -12.5t97.5 -42t75.5 -87.5t28 -139q0 -235 -307 -365l-74 -32q69 -113 172 -240q85 -108 175 -205q94 130 104 395h166q-3 -308 -152 -497q93 -74 183 -74q48 0 94 21l33 -140
q-60 -35 -148 -35q-81 0 -146.5 27t-138.5 82q-144 -111 -378 -111q-209 0 -336 113.5t-127 292.5zM301 399q0 -54 18.5 -102.5t55 -87t95.5 -61.5t134 -23q142 0 236 61q-135 132 -236 273q-107 143 -149 213q-74 -45 -114 -109.5t-40 -163.5zM494 1106q0 -113 61 -238
q0 -1 18 6.5t36 15.5t18 7q107 47 155.5 106t48.5 138q0 63 -40 103t-115 40q-81 0 -131.5 -46.5t-50.5 -131.5z" />
    <glyph glyph-name="quotesingle" unicode="'" horiz-adv-x="421" 
d="M119 952v531h184v-531h-184z" />
    <glyph glyph-name="parenleft" unicode="(" horiz-adv-x="649" 
d="M111 573q0 456 313 910h192q-153 -239 -232 -456t-79 -449q0 -133 21.5 -255t64.5 -233.5t90 -202.5t115 -200l-190 2q-62 94 -109.5 183t-92 201t-69 239.5t-24.5 260.5z" />
    <glyph glyph-name="parenright" unicode=")" horiz-adv-x="649" 
d="M10 1483h193q313 -454 313 -910q0 -133 -24.5 -260.5t-69 -239.5t-92 -201t-109.5 -183l-190 -2q68 109 115 200t90 202.5t64.5 233.5t21.5 255q0 232 -79 448.5t-233 456.5z" />
    <glyph glyph-name="asterisk" unicode="*" horiz-adv-x="964" 
d="M106 1239l29 88l266 -63l39 282h86l33 -282l262 65l27 -88l-244 -123l162 -246l-70 -55l-217 205l-215 -211l-69 59l159 248z" />
    <glyph glyph-name="plus" unicode="+" horiz-adv-x="1167" 
d="M197 573v170h301v308h170v-308h301v-170h-301v-311h-170v311h-301z" />
    <glyph glyph-name="comma" unicode="," horiz-adv-x="446" 
d="M29 -246l114 463h207l-172 -481z" />
    <glyph glyph-name="hyphen" unicode="-" horiz-adv-x="647" 
d="M41 514v178h555v-178h-555z" />
    <glyph glyph-name="period" unicode="." horiz-adv-x="462" 
d="M92 113q0 137 139 137q140 0 140 -137q0 -138 -140 -138q-139 0 -139 138z" />
    <glyph glyph-name="slash" unicode="/" horiz-adv-x="776" 
d="M14 -188l576 1734h168l-574 -1734h-170z" />
    <glyph glyph-name="zero" unicode="0" horiz-adv-x="1150" 
d="M84 739q0 138 14.5 249t50.5 210.5t92.5 166.5t145.5 105.5t205 38.5q85 0 153 -20t117.5 -55t86 -88.5t59 -114t36 -139.5t18.5 -156t5 -172q0 -147 -13 -261t-47 -216t-89.5 -168.5t-143 -105t-205.5 -38.5q-98 0 -175 25.5t-129.5 75.5t-88.5 115t-55.5 155t-28 183
t-8.5 210zM270 733q0 -114 6.5 -199t26.5 -165t53.5 -130t89 -80t132.5 -30q74 0 128 29.5t87.5 80.5t53.5 132t27 170t7 209q0 98 -4.5 172t-15.5 145.5t-32 121t-53.5 88t-80 57t-109.5 18.5q-75 0 -130.5 -28.5t-90.5 -78.5t-56.5 -129.5t-30 -170.5t-8.5 -212z" />
    <glyph glyph-name="one" unicode="1" horiz-adv-x="845" 
d="M82 1311q145 12 242 52t168 120h106v-1483h-184v1227q-47 -29 -152 -48.5t-166 -19.5z" />
    <glyph glyph-name="two" unicode="2" horiz-adv-x="1071" 
d="M96 1135q28 194 146 284t305 90q190 0 297.5 -92t107.5 -276q0 -82 -19.5 -155t-67 -152.5t-96.5 -143.5t-138 -170l-301 -352v-4h643v-164h-860v156l348 419q71 84 112 136t82 112t61.5 105.5t33 97.5t12.5 107q0 219 -234 219q-70 0 -118.5 -17.5t-76.5 -53.5
t-42.5 -76.5t-24.5 -100.5z" />
    <glyph glyph-name="three" unicode="3" horiz-adv-x="1107" 
d="M78 319l176 37q10 -45 19 -72.5t28 -59t45 -49t68 -29t100 -11.5q122 0 201.5 71t79.5 216q0 150 -81.5 215t-230.5 65h-133v158h94q154 0 242 74.5t88 198.5q0 221 -233 221q-123 0 -177.5 -50t-84.5 -161l-166 37q65 329 448 329q193 0 296.5 -93.5t103.5 -256.5
q0 -79 -26 -143.5t-70 -106.5t-92 -68.5t-101 -39.5v-6q315 -57 315 -377q0 -200 -130.5 -321.5t-346.5 -121.5q-182 0 -297.5 84t-134.5 260z" />
    <glyph glyph-name="four" unicode="4" horiz-adv-x="1132" 
d="M45 365v139l633 979h233v-959h174v-159h-176v-365h-180v365h-684zM229 524h502v774z" />
    <glyph glyph-name="five" unicode="5" horiz-adv-x="1107" 
d="M61 322l175 43q10 -48 26 -85t45.5 -71.5t80 -53t118.5 -18.5q58 0 109.5 19.5t95 58.5t69 108t25.5 160q0 155 -72.5 227t-195.5 72q-146 0 -265 -112l-127 57l58 756h708v-164h-563l-43 -477q124 100 291 100q64 0 120.5 -13.5t109 -47t90.5 -84t60.5 -129.5t22.5 -179
q0 -230 -133 -372t-362 -142q-172 0 -293.5 85.5t-149.5 261.5z" />
    <glyph glyph-name="six" unicode="6" horiz-adv-x="1157" 
d="M125 694q0 76 6.5 150t23.5 156.5t43.5 154t70 138t98.5 113.5t133.5 75t171.5 28q153 0 247 -73t125 -242l-167 -45q-28 118 -81.5 162.5t-142.5 44.5q-66 0 -120 -26t-91 -73t-63.5 -105t-41.5 -129.5t-22.5 -138t-9.5 -139.5q60 65 158 111.5t207 46.5
q191 0 292 -114.5t101 -311.5q0 -239 -126 -370.5t-337 -131.5q-94 0 -169 26t-126.5 75.5t-87 113t-55.5 147.5t-28.5 169.5t-8.5 187.5zM315 586q3 -75 11 -134t28 -123t50.5 -106t82 -69t119.5 -27q122 0 195 85.5t73 250.5q0 282 -241 282q-86 0 -170.5 -45.5
t-147.5 -113.5z" />
    <glyph glyph-name="seven" unicode="7" horiz-adv-x="1048" 
d="M72 1319v164h934v-144l-605 -1339h-198l606 1319h-737z" />
    <glyph glyph-name="eight" unicode="8" horiz-adv-x="1105" 
d="M74 356q0 144 81.5 240.5t229.5 163.5q-118 54 -190 144t-72 216q0 188 127 288.5t332 100.5q202 0 315 -90t113 -250q0 -129 -72.5 -221t-210.5 -164q73 -32 123 -63.5t95.5 -78t68 -111t22.5 -148.5q0 -177 -134 -292.5t-357 -115.5q-234 0 -352.5 106t-118.5 275z
M264 369q0 -110 69 -173t218 -63t220 70.5t71 179.5q0 36 -10.5 68.5t-26 57t-42.5 48t-50.5 39.5t-60.5 33.5t-61 27.5t-63 25q-50 -25 -84.5 -44.5t-71 -48.5t-58.5 -59t-36 -71.5t-14 -89.5zM313 1147q0 -44 15.5 -83t38 -67t60 -56.5t69 -46.5t77.5 -42q248 127 248 307
q0 98 -60.5 147.5t-189.5 49.5q-122 0 -190 -55t-68 -154z" />
    <glyph glyph-name="nine" unicode="9" horiz-adv-x="1157" 
d="M96 299l168 49q28 -119 91 -169t167 -50q325 0 336 594q-60 -65 -157 -110.5t-207 -45.5q-193 0 -292.5 117t-99.5 326q0 236 129.5 367.5t341.5 131.5q81 0 147 -20t113.5 -54.5t84 -87t59 -112t36.5 -134.5t19.5 -149t5.5 -161q0 -90 -6 -169t-21.5 -163.5
t-40.5 -153.5t-66 -131.5t-94.5 -105.5t-129.5 -68t-168 -25q-357 0 -416 324zM289 1016q0 -293 241 -293q88 0 173 45.5t145 116.5q-2 54 -6 96.5t-13 93.5t-22 89.5t-35 76t-50.5 61.5t-70 39t-92.5 15q-123 0 -196.5 -85t-73.5 -255z" />
    <glyph glyph-name="colon" unicode=":" horiz-adv-x="462" 
d="M92 113q0 137 139 137q140 0 140 -137q0 -138 -140 -138q-139 0 -139 138zM92 889q0 137 139 137q140 0 140 -137t-140 -137q-139 0 -139 137z" />
    <glyph glyph-name="semicolon" unicode=";" horiz-adv-x="446" 
d="M10 -246l115 463h207l-172 -481zM117 889q0 137 139 137t139 -137t-139 -137t-139 137z" />
    <glyph glyph-name="less" unicode="&#x3c;" horiz-adv-x="1167" 
d="M170 487v201l776 313v-172l-606 -235l606 -227v-177z" />
    <glyph glyph-name="equal" unicode="=" horiz-adv-x="1167" 
d="M201 322v174h766v-174h-766zM201 657v174h766v-174h-766z" />
    <glyph glyph-name="greater" unicode="&#x3e;" horiz-adv-x="1167" 
d="M186 201v166l607 227l-607 231v176l777 -313v-192z" />
    <glyph glyph-name="question" unicode="?" horiz-adv-x="1040" 
d="M43 1126q13 75 45 137.5t86 114.5t140 81.5t196 29.5q90 0 164.5 -20.5t136.5 -65.5t96.5 -125.5t34.5 -190.5q0 -378 -442 -464v-240h-181v367q431 31 431 331q0 72 -19 121.5t-54.5 76.5t-79 38.5t-99.5 11.5q-111 0 -182 -52.5t-99 -180.5zM268 106q0 134 138 134
q137 0 137 -134q0 -131 -137 -131q-138 0 -138 131z" />
    <glyph glyph-name="at" unicode="@" horiz-adv-x="1724" 
d="M98 387q0 233 100.5 412t284 277t422.5 98q156 0 288 -43t229.5 -124.5t152.5 -208.5t55 -286q0 -261 -96.5 -390.5t-261.5 -129.5q-84 0 -144.5 30.5t-85.5 81.5q-92 -120 -245 -120q-80 0 -139.5 29t-94 82t-51 120t-16.5 150q0 195 95.5 321.5t254.5 126.5
q111 0 188 -74l10 62h127v-520q0 -33 1.5 -54t7.5 -44.5t17.5 -36.5t33 -22t51.5 -9q87 0 140 99.5t53 270.5q0 549 -584 549q-196 0 -341.5 -87t-218.5 -231t-73 -323q0 -157 47.5 -276t134 -192t201 -109.5t254.5 -36.5q252 0 410 125l73 -115q-85 -74 -214.5 -111.5
t-286.5 -37.5q-166 0 -306 47t-246.5 137.5t-166.5 235t-60 327.5zM653 377q0 -264 170 -264q124 0 203 127v385q-71 61 -160 61q-96 0 -154.5 -77.5t-58.5 -231.5z" />
    <glyph glyph-name="A" unicode="A" horiz-adv-x="1406" 
d="M74 0l499 1483h246l516 -1483h-207l-149 440h-569l-146 -440h-190zM455 602h477l-238 709h-2z" />
    <glyph glyph-name="B" unicode="B" horiz-adv-x="1286" 
d="M197 0v1483h510q127 0 216.5 -27t138.5 -78.5t70 -114t21 -143.5q0 -147 -81 -232.5t-214 -115.5v-4q354 -45 354 -367q0 -111 -40 -190t-115.5 -124.5t-171.5 -66t-221 -20.5h-467zM383 158h254q71 0 122.5 5t102.5 21t82 43.5t50.5 74.5t19.5 112q0 95 -46 155.5
t-118.5 84.5t-171.5 24h-295v-520zM383 834h215q44 0 84 4.5t83 15t77.5 30t62 47.5t43 69.5t15.5 93.5q0 134 -73.5 183.5t-236.5 49.5h-270v-493z" />
    <glyph glyph-name="C" unicode="C" horiz-adv-x="1417" 
d="M102 719q0 372 186 581t505 209q243 0 388 -123t162 -374l-176 -19q-24 179 -111 266t-265 87q-236 0 -365 -154.5t-129 -456.5q0 -311 119.5 -454.5t349.5 -143.5q174 0 267.5 75.5t129.5 236.5l170 -35q-18 -118 -74 -206t-137.5 -137t-173 -72.5t-194.5 -23.5
q-171 0 -297.5 53t-203.5 153t-114 234t-37 304z" />
    <glyph glyph-name="D" unicode="D" horiz-adv-x="1490" 
d="M197 0v1483h456q374 0 555 -188t181 -531q0 -173 -46.5 -311.5t-139.5 -240.5t-241.5 -157t-343.5 -55h-421zM385 160h236q285 0 429 150t144 427q0 166 -36.5 280.5t-110.5 181t-173.5 95.5t-236.5 29h-252v-1163z" />
    <glyph glyph-name="E" unicode="E" horiz-adv-x="1177" 
d="M197 0v1483h866v-164h-678v-490h637v-163h-637v-502h705v-164h-893z" />
    <glyph glyph-name="F" unicode="F" horiz-adv-x="1120" 
d="M197 0v1483h866v-164h-678v-514h627v-164h-627v-641h-188z" />
    <glyph glyph-name="G" unicode="G" horiz-adv-x="1507" 
d="M102 723q0 374 184.5 580t510.5 206q512 0 549 -493l-181 -19q-19 180 -110 264.5t-264 84.5q-235 0 -364.5 -158.5t-129.5 -448.5q0 -604 475 -604q96 0 173.5 30.5t124.5 81.5t72 113t25 129v127h-393v154h572v-770h-138l-26 201q-42 -95 -168 -160.5t-279 -65.5
q-165 0 -288 54.5t-197.5 155t-111 235t-36.5 303.5z" />
    <glyph glyph-name="H" unicode="H" horiz-adv-x="1490" 
d="M197 0v1483h188v-641h721v641h188v-1483h-188v672h-721v-672h-188z" />
    <glyph glyph-name="I" unicode="I" horiz-adv-x="581" 
d="M197 0v1483h188v-1483h-188z" />
    <glyph glyph-name="J" unicode="J" horiz-adv-x="1021" 
d="M53 322l180 30q5 -45 12 -74.5t21.5 -59t36 -46t56.5 -27t83 -10.5q50 0 85 9t66 33t46.5 71.5t15.5 118.5v1116h189v-1108q0 -212 -104.5 -306t-301.5 -94q-186 0 -279.5 82.5t-105.5 264.5z" />
    <glyph glyph-name="K" unicode="K" horiz-adv-x="1318" 
d="M197 0v1483h188v-723l666 723h211l-584 -635l612 -848h-221l-520 700l-164 -174v-526h-188z" />
    <glyph glyph-name="L" unicode="L" horiz-adv-x="1130" 
d="M197 0v1483h188v-1317h668v-166h-856z" />
    <glyph glyph-name="M" unicode="M" horiz-adv-x="1837" 
d="M197 0v1483h286l437 -1262h2l436 1262h282v-1483h-178v1280h-2l-448 -1280h-197l-440 1282h-4v-1282h-174z" />
    <glyph glyph-name="N" unicode="N" horiz-adv-x="1525" 
d="M197 0v1483h247l711 -1231v1231h174v-1483h-227l-729 1243v-1243h-176z" />
    <glyph glyph-name="O" unicode="O" 
d="M102 741q0 166 46 306t132 243t219.5 161t299.5 58q132 0 240 -37.5t184 -104t128 -159.5t76.5 -203t24.5 -235q0 -243 -75.5 -420t-231 -276t-377.5 -99q-168 0 -297 57t-209 160t-120 241.5t-40 307.5zM299 743q0 -294 129 -448t350 -154q220 0 351 153.5t131 457.5
q0 288 -124.5 439.5t-342.5 151.5q-222 0 -358 -156t-136 -444z" />
    <glyph glyph-name="P" unicode="P" horiz-adv-x="1261" 
d="M197 0v1483h483q111 0 197 -23.5t141 -64t91 -98.5t50.5 -121t14.5 -138q0 -499 -566 -499h-225v-539h-186zM383 700h211q70 0 123.5 7.5t104.5 28.5t84 57t53 95t20 140q0 157 -85.5 226t-268.5 69h-242v-623z" />
    <glyph glyph-name="Q" unicode="Q" 
d="M102 741q0 166 46 306t132 243t219.5 161t299.5 58q132 0 240 -37.5t184 -104t128 -159.5t76.5 -203t24.5 -235q0 -385 -192 -592l182 -196l-111 -105l-188 203q-142 -105 -375 -105q-167 0 -295.5 57t-209 160t-121 241.5t-40.5 307.5zM299 743q0 -294 129.5 -450
t349.5 -156q143 0 250 64l-270 284l116 111l269 -295q119 177 119 451q0 287 -126 439t-343 152q-222 0 -358 -156t-136 -444z" />
    <glyph glyph-name="R" unicode="R" horiz-adv-x="1280" 
d="M197 0v1483h508q132 0 228.5 -34t149.5 -93t77 -127.5t24 -149.5q0 -161 -76 -264t-211 -149l365 -666h-205l-340 616h-334v-616h-186zM383 774h276q159 0 244.5 66t85.5 229q0 74 -23.5 125t-71.5 78.5t-108 39t-145 11.5h-258v-549z" />
    <glyph glyph-name="S" unicode="S" horiz-adv-x="1193" 
d="M45 403l180 27q11 -52 26 -92t43 -79.5t66 -65.5t96 -42t132 -16q65 0 120 12t104 38.5t77.5 77.5t28.5 122q0 39 -10.5 71.5t-26.5 57t-44 46t-53.5 35.5t-66.5 29t-71 24t-77 22q-42 11 -66.5 18t-64.5 20t-65 24t-59.5 27.5t-56 34t-47.5 41t-42 50.5t-30 59.5
t-20.5 71.5t-6.5 84q0 187 140 298t359 111q102 0 182.5 -21t146.5 -68t106.5 -129.5t52.5 -198.5l-176 -21q-8 47 -19 83.5t-34 75t-55.5 63.5t-84 41t-117.5 16q-161 0 -235 -63t-74 -169q0 -52 20.5 -93.5t49.5 -69t81.5 -52.5t93.5 -38.5t109 -33.5q172 -52 240 -86
q162 -80 200 -224q13 -50 13 -109q0 -113 -43 -199t-117 -137t-166 -76t-198 -25q-239 0 -376 102.5t-165 325.5z" />
    <glyph glyph-name="T" unicode="T" horiz-adv-x="1134" 
d="M27 1319v164h1081v-164h-444v-1319h-189v1319h-448z" />
    <glyph glyph-name="U" unicode="U" horiz-adv-x="1462" 
d="M184 502v981h189v-963q0 -202 88.5 -291.5t271.5 -89.5q184 0 270.5 85.5t86.5 289.5v969h186v-985q0 -264 -141 -393.5t-410 -129.5q-282 0 -411.5 131t-129.5 396z" />
    <glyph glyph-name="V" unicode="V" horiz-adv-x="1271" 
d="M20 1483h211l420 -1301h2l406 1301h192l-475 -1483h-256z" />
    <glyph glyph-name="W" unicode="W" horiz-adv-x="1818" 
d="M35 1483h196l254 -1262h2l328 1262h209l328 -1278h2l243 1278h189l-313 -1483h-240l-315 1219h-3l-323 -1219h-234z" />
    <glyph glyph-name="X" unicode="X" horiz-adv-x="1280" 
d="M29 0l487 752l-463 731h213l367 -586l379 586h198l-467 -723l508 -760h-217l-407 608l-394 -608h-204z" />
    <glyph glyph-name="Y" unicode="Y" horiz-adv-x="1159" 
d="M-10 1483h213l389 -723h4l379 723h194l-485 -905v-578h-188v573z" />
    <glyph glyph-name="Z" unicode="Z" horiz-adv-x="1204" 
d="M70 0v139l792 1180h-770v164h995v-144l-788 -1175h821v-164h-1050z" />
    <glyph glyph-name="bracketleft" unicode="[" horiz-adv-x="557" 
d="M131 -293v1776h346v-131h-170v-1514h170v-131h-346z" />
    <glyph glyph-name="backslash" unicode="\" horiz-adv-x="778" 
d="M20 1546h168l576 -1734h-170z" />
    <glyph glyph-name="bracketright" unicode="]" horiz-adv-x="557" 
d="M80 -162h170v1514h-170v131h346v-1776h-346v131z" />
    <glyph glyph-name="asciicircum" unicode="^" horiz-adv-x="1169" 
d="M84 612l403 748h191l409 -748h-184l-323 578l-318 -578h-178z" />
    <glyph glyph-name="underscore" unicode="_" horiz-adv-x="1024" 
d="M0 -225h1024v-146h-1024v146z" />
    <glyph glyph-name="grave" unicode="`" horiz-adv-x="1024" 
d="M268 1530h224l198 -334l-135 -25z" />
    <glyph glyph-name="a" unicode="a" horiz-adv-x="1116" 
d="M115 258q0 358 544 358q31 0 93 -4v103q0 108 -44 161.5t-165 53.5q-105 0 -155.5 -41.5t-68.5 -132.5l-163 30q25 148 122 218.5t281 70.5q198 0 287.5 -84t89.5 -278v-514q0 -46 12 -64t51 -18q23 0 64 12l8 -117q-60 -32 -145 -32q-74 0 -114 34.5t-48 89.5
q-129 -129 -338 -129q-76 0 -134 20t-90.5 49.5t-53 69.5t-27 74t-6.5 70zM307 289q0 -77 38.5 -122.5t137.5 -45.5q78 0 151.5 34.5t119.5 84.5v237q-44 6 -107 6q-53 0 -92.5 -2.5t-89 -14t-81.5 -31.5t-54.5 -57t-22.5 -89z" />
    <glyph glyph-name="b" unicode="b" horiz-adv-x="1189" 
d="M166 0v1546h184v-610q156 139 357 139q84 0 151.5 -28t120.5 -88t82 -163.5t29 -244.5q0 -149 -34.5 -262t-96 -180.5t-140.5 -100.5t-174 -33q-154 0 -305 117h-2l-10 -92h-162zM352 242q1 -1 20 -14t26 -17.5t28 -17t34 -18.5t35.5 -15.5t40.5 -14.5t41.5 -8.5
t45.5 -3.5q274 0 274 420q0 189 -60 277t-190 88q-79 0 -161.5 -40.5t-133.5 -91.5v-544z" />
    <glyph glyph-name="c" unicode="c" horiz-adv-x="1101" 
d="M100 516q0 274 131.5 416.5t372.5 142.5q181 0 288.5 -93.5t117.5 -272.5l-179 -25q-12 119 -69 177.5t-166 58.5q-49 0 -90.5 -10.5t-81.5 -37.5t-67.5 -69t-44.5 -109.5t-17 -154.5q0 -114 22 -195t63 -126.5t92.5 -66t117.5 -20.5q223 0 262 225l164 -34
q-12 -89 -51.5 -157.5t-99 -109t-130 -60.5t-151.5 -20q-127 0 -221.5 39.5t-151.5 112.5t-84 170t-27 219z" />
    <glyph glyph-name="d" unicode="d" horiz-adv-x="1181" 
d="M102 510q0 121 24 218t65 161t98.5 106.5t121.5 61t136 18.5q172 0 295 -98v569h182v-1546h-156l-14 113l-2 2q-74 -67 -157 -103.5t-191 -36.5q-189 0 -295.5 129.5t-106.5 405.5zM295 510q0 -194 63 -286.5t201 -92.5q77 0 151.5 37t129.5 92v563q-46 37 -116 64.5
t-153 27.5q-147 0 -211.5 -105t-64.5 -300z" />
    <glyph glyph-name="e" unicode="e" horiz-adv-x="1118" 
d="M100 524q0 140 39 247.5t107.5 173t156.5 98t193 32.5q108 0 189.5 -34t130.5 -96t73.5 -143t24.5 -181q0 -73 -8 -138h-709q2 -98 24.5 -167.5t63.5 -109t91.5 -57.5t115.5 -18q109 0 166.5 46t81.5 140l164 -36q-31 -150 -142.5 -228t-275.5 -78q-108 0 -192.5 29.5
t-139 80t-90 122t-50 149t-14.5 168.5zM299 631h522q0 293 -237 293q-114 0 -196 -73.5t-89 -219.5z" />
    <glyph glyph-name="f" unicode="f" horiz-adv-x="669" 
d="M33 903v150h155v170q0 172 80 258t234 86q115 0 192 -35l-8 -143q-76 26 -147 26q-79 0 -121.5 -41t-42.5 -145v-176h293v-150h-293v-903h-187v903h-155z" />
    <glyph glyph-name="g" unicode="g" horiz-adv-x="1130" 
d="M66 -203q0 85 48 146.5t122 95.5v2q-58 25 -86.5 58t-28.5 87q0 61 36 108t103 99q-73 39 -114.5 116t-41.5 179q0 174 122.5 280.5t324.5 106.5q209 0 305 -96q59 137 166 137q42 0 92 -16v-150q-21 2 -43 2q-75 0 -158 -24q78 -90 78 -230q0 -174 -121.5 -275
t-308.5 -101q-115 0 -188 24q-23 -20 -32.5 -29t-21.5 -29t-12 -40q0 -35 28 -54.5t107 -25.5l293 -21q87 -6 146 -20.5t106.5 -44.5t69.5 -81.5t22 -127.5q0 -74 -31 -133t-82.5 -96.5t-122.5 -62t-146 -34.5t-158 -10q-473 0 -473 260zM252 -168q0 -72 69.5 -109.5
t239.5 -37.5q326 0 326 165q0 60 -37.5 90t-138.5 37l-342 21q-64 -44 -90.5 -79.5t-26.5 -86.5zM291 700q0 -225 262 -225q119 0 188.5 58.5t69.5 162.5q0 116 -66 173t-188 57q-119 0 -192.5 -55.5t-73.5 -170.5z" />
    <glyph glyph-name="h" unicode="h" horiz-adv-x="1191" 
d="M166 0v1546h184v-612q183 141 371 141q166 0 243.5 -89t77.5 -271v-715h-186v686q0 114 -45.5 169.5t-151.5 55.5q-82 0 -169 -40.5t-138 -86.5v-784h-186z" />
    <glyph glyph-name="i" unicode="i" horiz-adv-x="509" 
d="M131 1391q0 133 131 133q64 0 98.5 -34t34.5 -99q0 -66 -35 -101t-98 -35t-97 35t-34 101zM166 0v1053h186v-1053h-186z" />
    <glyph glyph-name="j" unicode="j" horiz-adv-x="505" 
d="M-145 -416l20 152q79 -31 154 -31q67 0 102 38t35 128v1182h186v-1190q0 -320 -299 -320q-52 0 -110.5 12t-87.5 29zM131 1407q0 63 35 98t98 35t97 -35t34 -98q0 -66 -34 -100.5t-97 -34.5q-64 0 -98.5 35t-34.5 100z" />
    <glyph glyph-name="k" unicode="k" horiz-adv-x="1087" 
d="M166 0v1546h186v-956l453 463h211l-365 -379l391 -674h-204l-324 543l-162 -160v-383h-186z" />
    <glyph glyph-name="l" unicode="l" horiz-adv-x="509" 
d="M166 0v1546h186v-1546h-186z" />
    <glyph glyph-name="m" unicode="m" horiz-adv-x="1773" 
d="M166 0v1053h160l10 -119q88 68 172.5 104.5t185.5 36.5q203 0 264 -145q184 145 365 145q162 0 230.5 -87t68.5 -271v-717h-186v690q0 114 -34.5 167.5t-129.5 53.5q-70 0 -150 -36t-133 -80q4 -50 4 -78v-717h-186v690q0 114 -34.5 167.5t-129.5 53.5q-75 0 -158.5 -40
t-132.5 -85v-786h-186z" />
    <glyph glyph-name="n" unicode="n" horiz-adv-x="1191" 
d="M166 0v1053h164l10 -125q186 147 379 147q168 0 245.5 -88.5t77.5 -271.5v-715h-186v686q0 114 -45.5 169.5t-151.5 55.5q-82 0 -169 -40.5t-138 -86.5v-784h-186z" />
    <glyph glyph-name="o" unicode="o" horiz-adv-x="1183" 
d="M100 522q0 258 132 405.5t380 147.5q123 0 214.5 -38.5t147 -109.5t82.5 -166t27 -214q0 -132 -28.5 -235t-87 -179.5t-155 -117t-226.5 -40.5q-486 0 -486 547zM293 530q0 -209 74 -307t229 -98q142 0 217.5 96.5t75.5 313.5q0 210 -71 298.5t-214 88.5q-147 0 -229 -95
t-82 -297z" />
    <glyph glyph-name="p" unicode="p" horiz-adv-x="1189" 
d="M166 -434v1487h162l10 -121q156 143 364 143q86 0 154 -28t121 -88t81.5 -163.5t28.5 -244.5q0 -150 -35 -263t-96 -180t-138.5 -100t-168.5 -33q-166 0 -303 103v-512h-180zM352 238q135 -105 271 -105q75 0 128.5 29.5t85 86t46 131.5t14.5 173q0 195 -60.5 281
t-189.5 86q-79 0 -161.5 -41.5t-133.5 -92.5v-548z" />
    <glyph glyph-name="q" unicode="q" horiz-adv-x="1177" 
d="M102 512q0 121 24 218t65 160.5t98.5 106t121.5 60.5t136 18q171 0 299 -114l16 92h162v-1487h-176v538q-77 -62 -158 -95.5t-186 -33.5q-189 0 -295.5 130t-106.5 407zM295 512q0 -195 62.5 -288t201.5 -93q77 0 151.5 37t129.5 92v553q-133 102 -269 102
q-147 0 -211.5 -104.5t-64.5 -298.5z" />
    <glyph glyph-name="r" unicode="r" horiz-adv-x="745" 
d="M166 0v1053h156l14 -152q68 92 152.5 133t197.5 41q7 0 19.5 -1t19.5 -1v-192q-26 3 -53 3q-74 0 -150 -24q-104 -32 -170 -94v-766h-186z" />
    <glyph glyph-name="s" unicode="s" horiz-adv-x="997" 
d="M80 281l166 45q23 -100 78.5 -151.5t183.5 -51.5q219 0 219 151q0 34 -11 59t-27.5 40.5t-49.5 28.5t-61.5 20.5t-79.5 17.5q-38 7 -59 11.5t-57.5 14t-58.5 17.5t-53 22.5t-50 30.5t-40.5 38.5t-33 48.5t-19.5 60.5t-8 74.5q0 103 53.5 176t140 107t195.5 34
q179 0 269 -78.5t116 -226.5l-168 -37q-11 51 -24 82.5t-36.5 59.5t-62.5 40.5t-96 12.5q-108 0 -155.5 -40.5t-47.5 -107.5q0 -33 11 -57.5t28 -40.5t50 -30t63 -22t82 -20q155 -35 214 -62q129 -58 154 -183q6 -32 6 -70q0 -152 -109 -236t-302 -84q-186 0 -291 74.5
t-129 231.5z" />
    <glyph glyph-name="t" unicode="t" horiz-adv-x="776" 
d="M37 903v150h162v305l186 28v-333h291v-150h-291v-602q0 -90 31.5 -131t120.5 -41q88 0 184 51l33 -135q-41 -28 -114.5 -49t-143.5 -21q-150 0 -223.5 72t-73.5 229v627h-162z" />
    <glyph glyph-name="u" unicode="u" horiz-adv-x="1189" 
d="M162 338v715h186v-686q0 -118 40 -172t151 -54q81 0 167 41.5t138 87.5v783h186v-1053h-162l-12 121q-175 -141 -373 -141q-165 0 -243 88.5t-78 269.5z" />
    <glyph glyph-name="v" unicode="v" horiz-adv-x="1034" 
d="M12 1053h203l309 -867h2l305 867h191l-395 -1053h-213z" />
    <glyph glyph-name="w" unicode="w" 
d="M12 1053h189l256 -856l231 856h193l229 -852h2l250 852h180l-328 -1053h-217l-217 829h-2l-215 -829h-221z" />
    <glyph glyph-name="x" unicode="x" horiz-adv-x="1007" 
d="M35 0l354 543l-352 510h205l258 -383l266 383h190l-354 -506l373 -547h-203l-280 414l-267 -414h-190z" />
    <glyph glyph-name="y" unicode="y" horiz-adv-x="993" 
d="M-20 -418l22 146q92 -33 168 -33q61 0 108 37.5t80 126.5l50 129l-392 1065h207l279 -836h2l289 836h190l-455 -1207q-61 -164 -141.5 -233.5t-204.5 -69.5q-113 0 -202 39z" />
    <glyph glyph-name="z" unicode="z" horiz-adv-x="940" 
d="M63 0v127l590 776h-581v150h792v-135l-590 -768h615v-150h-826z" />
    <glyph glyph-name="braceleft" unicode="{" horiz-adv-x="626" 
d="M8 526v138h35q156 0 156 174q0 69 -13.5 224.5t-13.5 209.5q0 237 279 237h112v-145h-80q-66 0 -93.5 -26.5t-27.5 -82.5q0 -58 13.5 -208t13.5 -218q0 -58 -11 -99t-34.5 -67t-46.5 -40.5t-59 -28.5q36 -14 59 -29t46.5 -40.5t34.5 -66.5t11 -98q0 -71 -13.5 -203.5
t-13.5 -187.5q0 -64 31 -95.5t113 -31.5h57v-139h-110q-281 0 -281 238q0 66 13.5 204.5t13.5 204.5q0 94 -39 135t-115 41h-37z" />
    <glyph glyph-name="bar" unicode="|" horiz-adv-x="573" 
d="M203 -293v1839h168v-1839h-168z" />
    <glyph glyph-name="braceright" unicode="}" horiz-adv-x="626" 
d="M63 -152h80q66 0 93.5 26.5t27.5 82.5q0 58 -13 208t-13 218q0 58 11 99t34.5 67t46.5 40.5t59 28.5q-36 14 -59 29t-46.5 40.5t-34.5 66.5t-11 98q0 71 13 203.5t13 187.5q0 65 -30.5 96t-112.5 31h-58v139h111q281 0 281 -237q0 -66 -13.5 -205t-13.5 -205
q0 -94 39 -135t115 -41h36v-137h-34q-156 0 -156 -174q0 -69 13.5 -224.5t13.5 -209.5q0 -238 -279 -238h-113v145z" />
    <glyph glyph-name="asciitilde" unicode="~" horiz-adv-x="1058" 
d="M102 602q-16 122 37.5 190t141.5 68q70 0 256 -47t227 -47t58.5 21t17.5 85l118 -6q13 -123 -37 -187.5t-141 -64.5q-68 0 -256.5 47.5t-230.5 47.5q-80 0 -72 -111z" />
    <glyph glyph-name="uni00A0" unicode="&#xa0;" horiz-adv-x="438" 
 />
    <glyph glyph-name="exclamdown" unicode="&#xa1;" horiz-adv-x="544" 
d="M150 942q0 131 137 131t137 -131q0 -133 -137 -133t-137 133zM184 -434l33 1098h141l35 -1098h-209z" />
    <glyph glyph-name="cent" unicode="&#xa2;" horiz-adv-x="1056" 
d="M121 713q0 222 101.5 352t279.5 160v209h155v-205q139 -18 223.5 -102.5t94.5 -233.5l-170 -25q-11 94 -47.5 142.5t-108.5 60.5v-700q76 10 115.5 55.5t60.5 138.5l158 -33q-24 -140 -112.5 -219.5t-219.5 -97.5v-215h-149v211q-187 24 -284 159t-97 343zM313 735
q0 -149 44 -240.5t149 -119.5v692q-193 -48 -193 -332z" />
    <glyph glyph-name="sterling" unicode="&#xa3;" horiz-adv-x="1148" 
d="M45 0v154h111q170 153 170 325q0 84 -47 180h-213v152h157q-27 49 -41.5 78t-32.5 91.5t-18 121.5q0 179 131 293t336 114q197 0 303.5 -88.5t130.5 -287.5l-168 -23q-9 63 -25.5 106t-46.5 76.5t-79 49.5t-119 16q-128 0 -204.5 -61t-76.5 -175q0 -31 5.5 -64t11.5 -56
t19.5 -57t19.5 -47t23.5 -48l19.5 -39h462v-152h-411q39 -82 39 -176q0 -180 -152 -329h355q115 0 165.5 52t71.5 175l164 -33q-23 -184 -117 -266t-276 -82h-668z" />
    <glyph glyph-name="currency" unicode="&#xa4;" horiz-adv-x="1167" 
d="M-2 129l192 193q-63 108 -63 253q0 131 68 240l-191 189l121 122l182 -180q115 88 281 88q169 0 276 -82l174 172l113 -118l-178 -181q59 -109 59 -241q0 -144 -74 -265l193 -188l-123 -121l-186 183q-107 -76 -269 -76q-165 0 -276 80q-5 -8 -184 -187zM311 575
q0 -136 67.5 -219.5t205.5 -83.5q127 0 196.5 85t69.5 218q0 142 -69 220.5t-203 78.5q-130 0 -198.5 -82t-68.5 -217z" />
    <glyph glyph-name="yen" unicode="&#xa5;" horiz-adv-x="1085" 
d="M47 1483h205l305 -572h2l293 572h190l-329 -615h207v-139h-275v-178h275v-141h-275v-410h-186v410h-271v141h271v178h-271v139h197z" />
    <glyph glyph-name="brokenbar" unicode="&#xa6;" horiz-adv-x="573" 
d="M203 -293v795h168v-795h-168zM203 844v702h168v-702h-168z" />
    <glyph glyph-name="section" unicode="&#xa7;" horiz-adv-x="1122" 
d="M96 508q0 176 195 303q-121 96 -121 268q0 119 59 205t156 127t219 41q187 0 298.5 -95t121.5 -276l-174 -22q-13 121 -71 182.5t-181 61.5q-119 0 -182.5 -55t-63.5 -146q0 -56 23.5 -98t63.5 -68t92 -46t109 -36.5t114 -33.5t109 -42.5t92 -59.5t63.5 -88t23.5 -124
q0 -87 -50 -165.5t-142 -139.5q121 -92 121 -267q0 -119 -59 -204.5t-156 -126.5t-219 -41q-188 0 -299 94t-123 276l176 23q11 -120 71 -182t183 -62q118 0 180.5 56t62.5 151q0 55 -23.5 96.5t-63.5 67t-92 45t-109.5 35t-115 32.5t-109.5 42t-92 59t-63.5 88t-23.5 125z
M274 539q0 -45 20 -79t50.5 -55t78.5 -39.5t92 -30t103.5 -28.5t100.5 -33q147 92 147 203q0 51 -26 88t-76 60.5t-100.5 38.5t-124 35.5t-121.5 39.5q-144 -93 -144 -200z" />
    <glyph glyph-name="dieresis" unicode="&#xa8;" horiz-adv-x="1024" 
d="M168 1376q0 57 35.5 91t95.5 34q57 0 92 -34t35 -91q0 -59 -34.5 -93t-92.5 -34q-60 0 -95.5 33.5t-35.5 93.5zM598 1376q0 57 34.5 91t94.5 34t94.5 -34t34.5 -91q0 -60 -34.5 -93.5t-94.5 -33.5t-94.5 33.5t-34.5 93.5z" />
    <glyph glyph-name="copyright" unicode="&#xa9;" horiz-adv-x="1579" 
d="M100 639q0 158 54.5 289.5t148.5 218.5t220 134.5t270 47.5q318 0 502 -179.5t184 -481.5q0 -310 -191.5 -501.5t-499.5 -191.5q-166 0 -298 51t-216.5 141t-129 210t-44.5 262zM225 641q0 -258 151.5 -406.5t416.5 -148.5q263 0 414 152t151 417q0 180 -73 308.5
t-199 191t-293 62.5q-163 0 -290.5 -67t-202.5 -199t-75 -310zM430 657q0 178 98.5 288t274.5 110q128 0 211 -63.5t90 -198.5l-121 -17q-8 89 -51 130.5t-133 41.5q-102 0 -167 -71.5t-65 -223.5q0 -126 57.5 -207t170.5 -81q95 0 139.5 41.5t64.5 132.5l115 -19
q-8 -61 -32 -109t-56 -77.5t-73 -48.5t-79 -26t-77 -7q-187 0 -277 111t-90 294z" />
    <glyph glyph-name="ordfeminine" unicode="&#xaa;" horiz-adv-x="774" 
d="M76 745q0 64 25.5 109.5t73 71t103 37.5t128.5 16q72 0 90 -4v57q0 67 -26 99t-99 32q-65 0 -94.5 -24.5t-40.5 -81.5l-132 24q17 98 84 144.5t195 46.5q137 0 200.5 -54.5t63.5 -181.5v-319q0 -30 8.5 -40.5t34.5 -10.5q17 0 41 6l6 -84q-44 -23 -108 -23
q-53 0 -82.5 23.5t-36.5 58.5q-93 -86 -225 -86q-61 0 -105 18.5t-65 48.5t-30 58.5t-9 58.5zM233 768q0 -44 23 -70t84 -26q45 0 88 19t70 46v142q-32 4 -58 4q-43 0 -75 -4t-64.5 -15t-50 -35.5t-17.5 -60.5z" />
    <glyph glyph-name="guillemotleft" unicode="&#xab;" horiz-adv-x="890" 
d="M117 530l182 306h168l-172 -299l168 -326h-168zM444 530l183 306h168l-172 -299l168 -326h-168z" />
    <glyph glyph-name="logicalnot" unicode="&#xac;" horiz-adv-x="1167" 
d="M193 582v170h772v-363h-166v193h-606z" />
    <glyph glyph-name="uni00AD" unicode="&#xad;" horiz-adv-x="636" 
d="M41 514v178h555v-178h-555z" />
    <glyph glyph-name="registered" unicode="&#xae;" horiz-adv-x="925" 
d="M82 965q0 174 109.5 278.5t273.5 104.5q176 0 277.5 -100.5t101.5 -268.5q0 -170 -106.5 -275.5t-276.5 -105.5q-183 0 -281 102t-98 265zM170 967q0 -134 79 -210.5t216 -76.5q135 0 214 79t79 214q0 142 -80.5 217.5t-212.5 75.5q-128 0 -211.5 -80.5t-83.5 -218.5z
M338 784v392h139q135 0 135 -111q0 -75 -69 -102l104 -179h-88l-90 154h-51v-154h-80zM418 999h26q41 0 63.5 13t22.5 49q0 30 -18 41.5t-53 11.5h-41v-115z" />
    <glyph glyph-name="macron" unicode="&#xaf;" horiz-adv-x="1024" 
d="M215 1280v145h596v-145h-596z" />
    <glyph glyph-name="degree" unicode="&#xb0;" horiz-adv-x="696" 
d="M141 1298q0 109 65 171.5t167 62.5q101 0 164 -60t63 -167q0 -106 -61.5 -168t-165.5 -62q-106 0 -169 59.5t-63 163.5zM258 1298q0 -54 30 -84t85 -30q53 0 81.5 32.5t28.5 88.5q0 57 -28 87.5t-82 30.5q-52 0 -83.5 -32.5t-31.5 -92.5z" />
    <glyph glyph-name="plusminus" unicode="&#xb1;" horiz-adv-x="1167" 
d="M197 0v164h772v-164h-772zM197 573v170h301v308h170v-308h301v-170h-301v-297h-170v297h-301z" />
    <glyph glyph-name="uni00B2" unicode="&#xb2;" horiz-adv-x="790" 
d="M94 1395q17 125 99.5 186t207.5 61q136 0 206.5 -59t70.5 -174q0 -97 -54 -181t-180 -210l-143 -156v-4h391v-143h-586v139l211 233q112 126 150.5 186t38.5 128q0 110 -121 110q-68 0 -101 -35t-44 -106z" />
    <glyph glyph-name="uni00B3" unicode="&#xb3;" horiz-adv-x="817" 
d="M78 926l151 28q11 -64 42 -93.5t102 -29.5q66 0 107.5 36.5t41.5 111.5q0 81 -41.5 113t-126.5 32h-88v123h60q88 0 136 42t48 112q0 53 -27.5 81.5t-93.5 28.5t-97.5 -28t-45.5 -88l-146 28q44 219 306 219q131 0 201.5 -58t70.5 -159q0 -89 -52 -143t-126 -78v-2
q196 -40 196 -227q0 -127 -88.5 -201t-232.5 -74q-78 0 -139 21.5t-104 73.5t-54 131z" />
    <glyph glyph-name="acute" unicode="&#xb4;" horiz-adv-x="1024" 
d="M342 1196l199 334h223l-287 -359z" />
    <glyph glyph-name="mu" unicode="&#xb5;" horiz-adv-x="1288" 
d="M205 -360v1413h186v-684q0 -127 36 -180.5t132 -53.5q163 0 324 170v748h186v-1053h-178v127h-2q-176 -147 -354 -147q-47 0 -90 14t-66 37l-6 -2l22 -389h-190z" />
    <glyph glyph-name="paragraph" unicode="&#xb6;" horiz-adv-x="1150" 
d="M51 979q0 108 29.5 194t81 143t124.5 95.5t155 55t177 16.5h347l2 -1755h-160v1615h-168v-1615h-160v782q-203 17 -315.5 140t-112.5 329z" />
    <glyph glyph-name="periodcentered" unicode="&#xb7;" horiz-adv-x="397" 
d="M63 623q0 133 136 133q135 0 135 -133q0 -131 -135 -131q-136 0 -136 131z" />
    <glyph glyph-name="cedilla" unicode="&#xb8;" horiz-adv-x="1024" 
d="M274 -434l35 104q54 -30 115 -30q46 0 72 25t26 67q0 51 -34.5 72.5t-114.5 23.5l33 233l116 -16l-18 -135q162 -31 162 -180q0 -95 -63.5 -150t-162.5 -55q-91 0 -166 41z" />
    <glyph glyph-name="uni00B9" unicode="&#xb9;" horiz-adv-x="647" 
d="M82 1518q181 12 268 104h113v-911h-170v712q-29 -16 -97 -27.5t-106 -11.5z" />
    <glyph glyph-name="ordmasculine" unicode="&#xba;" horiz-adv-x="817" 
d="M70 915q0 169 89 263t263 94q167 0 246.5 -90t79.5 -250q0 -177 -84 -274t-261 -97q-333 0 -333 354zM231 920q0 -123 43 -177.5t136 -54.5q87 0 131.5 54t44.5 182q0 124 -41 175.5t-129 51.5q-90 0 -137.5 -54t-47.5 -177z" />
    <glyph glyph-name="guillemotright" unicode="&#xbb;" horiz-adv-x="890" 
d="M100 211l172 307l-172 318h168l181 -316l-181 -309h-168zM428 211l172 307l-172 318h168l180 -316l-180 -309h-168z" />
    <glyph glyph-name="onequarter" unicode="&#xbc;" horiz-adv-x="1822" 
d="M113 1378q179 12 268 105h113v-912h-170v713q-29 -16 -97 -27.5t-106 -11.5zM416 -25l729 1508h172l-725 -1508h-176zM1012 211v117l385 583h207v-567h108v-133h-106v-211h-166v211h-428zM1163 344h277v418z" />
    <glyph glyph-name="onehalf" unicode="&#xbd;" horiz-adv-x="1822" 
d="M129 1378q179 12 268 105h113v-912h-170v713q-29 -16 -97 -27.5t-106 -11.5zM389 -25l729 1508h172l-725 -1508h-176zM1114 680q17 125 99.5 186.5t207.5 61.5q135 0 206 -59.5t71 -174.5q0 -97 -54 -181t-180 -210l-143 -156v-4h391v-143h-586v139l211 234
q113 127 151 186t38 127q0 111 -121 111q-68 0 -101 -35.5t-44 -106.5z" />
    <glyph glyph-name="threequarters" unicode="&#xbe;" horiz-adv-x="1822" 
d="M92 786l152 29q11 -65 41.5 -94t101.5 -29q66 0 108 36.5t42 111.5q0 81 -41.5 113t-126.5 32h-88v123h59q88 0 136 42t48 112q0 53 -27.5 81.5t-93.5 28.5t-97.5 -28t-45.5 -89l-145 29q44 219 305 219q131 0 201.5 -58t70.5 -159q0 -89 -52 -143t-126 -78v-2
q197 -40 197 -227q0 -127 -88.5 -201t-233.5 -74q-58 0 -106.5 12.5t-89 38.5t-67 70t-34.5 104zM489 -25l730 1508h172l-725 -1508h-177zM1057 211v117l385 583h207v-567h108v-133h-106v-211h-166v211h-428zM1208 344h277v418z" />
    <glyph glyph-name="questiondown" unicode="&#xbf;" horiz-adv-x="983" 
d="M80 -39q0 103 33 184.5t94 136.5t139 90t176 54v240h180v-367q-430 -31 -430 -332q0 -72 19 -121.5t54.5 -76.5t79 -38.5t99.5 -11.5q111 0 182 53t99 181l174 -31q-13 -75 -45 -137.5t-86 -114.5t-140 -81t-196 -29q-91 0 -165 20.5t-136 65t-96.5 125t-34.5 190.5z
M479 942q0 131 137 131q138 0 138 -131q0 -133 -138 -133q-137 0 -137 133z" />
    <glyph glyph-name="Agrave" unicode="&#xc0;" horiz-adv-x="1406" 
d="M74 0l499 1483h246l516 -1483h-207l-149 440h-569l-146 -440h-190zM436 1870h226l202 -275l-141 -24zM455 602h477l-238 709h-2z" />
    <glyph glyph-name="Aacute" unicode="&#xc1;" horiz-adv-x="1406" 
d="M74 0l499 1483h246l516 -1483h-207l-149 440h-569l-146 -440h-190zM455 602h477l-238 709h-2zM549 1595l203 275h225l-287 -299z" />
    <glyph glyph-name="Acircumflex" unicode="&#xc2;" horiz-adv-x="1406" 
d="M74 0l499 1483h246l516 -1483h-207l-149 440h-569l-146 -440h-190zM387 1589l238 264h161l234 -264l-143 -14l-175 160l-172 -164zM455 602h477l-238 709h-2z" />
    <glyph glyph-name="Atilde" unicode="&#xc3;" horiz-adv-x="1406" 
d="M74 0l499 1483h246l516 -1483h-207l-149 440h-569l-146 -440h-190zM373 1599q-16 122 36 187t138 65q56 0 113 -23t107.5 -46t88.5 -23q41 0 59.5 21.5t18.5 83.5l113 -6q16 -122 -33.5 -185t-139.5 -63q-56 0 -114.5 23.5t-110.5 47t-90 23.5q-80 0 -72 -111zM455 602
h477l-238 709h-2z" />
    <glyph glyph-name="Adieresis" unicode="&#xc4;" horiz-adv-x="1406" 
d="M74 0l499 1483h246l516 -1483h-207l-149 440h-569l-146 -440h-190zM358 1722q0 60 35.5 93.5t95.5 33.5q58 0 92.5 -34t34.5 -93t-34.5 -92t-92.5 -33q-61 0 -96 33t-35 92zM455 602h477l-238 709h-2zM788 1722q0 60 35 93.5t95 33.5t94.5 -33.5t34.5 -93.5t-34.5 -92.5
t-94.5 -32.5q-61 0 -95.5 33t-34.5 92z" />
    <glyph glyph-name="Aring" unicode="&#xc5;" horiz-adv-x="1406" 
d="M74 0l497 1477q-90 53 -90 168q0 101 60.5 155.5t152.5 54.5q95 0 156 -51t61 -149q0 -123 -92 -176l516 -1479h-207l-149 440h-569l-146 -440h-190zM455 602h477l-238 709h-2zM592 1651q0 -103 102 -103q50 0 75.5 28.5t25.5 80.5q0 96 -101 96q-45 0 -73.5 -26.5
t-28.5 -75.5z" />
    <glyph glyph-name="AE" unicode="&#xc6;" horiz-adv-x="2048" 
d="M61 0l807 1483h1049v-164h-678v-506h635v-162h-635v-487h705v-164h-895v647h-439l-352 -647h-197zM684 807h365v512h-88z" />
    <glyph glyph-name="Ccedilla" unicode="&#xc7;" horiz-adv-x="1417" 
d="M102 719q0 372 186 581t505 209q243 0 388 -123t162 -374l-176 -19q-24 179 -111 266t-265 87q-236 0 -365 -154.5t-129 -456.5q0 -311 119.5 -454.5t349.5 -143.5q174 0 267.5 75.5t129.5 236.5l170 -35q-14 -88 -49.5 -159.5t-84.5 -120t-112 -83t-130.5 -52
t-141.5 -22.5l-8 -67q162 -31 162 -180q0 -95 -63.5 -150t-162.5 -55q-87 0 -159 39l28 106q54 -30 111 -30q50 0 76 25t26 67q0 51 -34.5 72.5t-114.5 23.5l18 149q-125 7 -223.5 45.5t-167.5 103t-114 156t-66 200t-21 237.5z" />
    <glyph glyph-name="Egrave" unicode="&#xc8;" horiz-adv-x="1177" 
d="M197 0v1483h866v-164h-678v-490h637v-163h-637v-502h705v-164h-893zM358 1870h226l202 -275l-141 -24z" />
    <glyph glyph-name="Eacute" unicode="&#xc9;" horiz-adv-x="1177" 
d="M197 0v1483h866v-164h-678v-490h637v-163h-637v-502h705v-164h-893zM471 1595l203 275h225l-287 -299z" />
    <glyph glyph-name="Ecircumflex" unicode="&#xca;" horiz-adv-x="1177" 
d="M197 0v1483h866v-164h-678v-490h637v-163h-637v-502h705v-164h-893zM309 1589l238 264h162l233 -264l-143 -14l-174 160l-172 -164z" />
    <glyph glyph-name="Edieresis" unicode="&#xcb;" horiz-adv-x="1177" 
d="M197 0v1483h866v-164h-678v-490h637v-163h-637v-502h705v-164h-893zM281 1722q0 60 35.5 93.5t95.5 33.5q58 0 92.5 -34t34.5 -93t-34.5 -92t-92.5 -33q-61 0 -96 33t-35 92zM711 1722q0 60 34.5 93.5t94.5 33.5t94.5 -33.5t34.5 -93.5t-34.5 -92.5t-94.5 -32.5
t-94.5 32.5t-34.5 92.5z" />
    <glyph glyph-name="Igrave" unicode="&#xcc;" horiz-adv-x="581" 
d="M27 1870h225l203 -275l-142 -24zM197 0v1483h188v-1483h-188z" />
    <glyph glyph-name="Iacute" unicode="&#xcd;" horiz-adv-x="581" 
d="M139 1595l203 275h225l-286 -299zM197 0v1483h188v-1483h-188z" />
    <glyph glyph-name="Icircumflex" unicode="&#xce;" horiz-adv-x="581" 
d="M-23 1589l238 264h162l233 -264l-143 -14l-174 160l-172 -164zM197 0v1483h188v-1483h-188z" />
    <glyph glyph-name="Idieresis" unicode="&#xcf;" horiz-adv-x="581" 
d="M-51 1722q0 60 35.5 93.5t95.5 33.5q58 0 92.5 -34t34.5 -93t-34.5 -92t-92.5 -33q-61 0 -96 33t-35 92zM197 0v1483h188v-1483h-188zM379 1722q0 60 34.5 93.5t94.5 33.5t94.5 -33.5t34.5 -93.5t-34.5 -92.5t-94.5 -32.5t-94.5 32.5t-34.5 92.5z" />
    <glyph glyph-name="Eth" unicode="&#xd0;" horiz-adv-x="1490" 
d="M37 674v153h160v656h456q374 0 555 -188t181 -531q0 -173 -46.5 -311.5t-139.5 -240.5t-241.5 -157t-343.5 -55h-421v674h-160zM385 160h236q285 0 429 150t144 427q0 166 -36.5 280.5t-110.5 181t-173.5 95.5t-236.5 29h-252v-496h416v-153h-416v-514z" />
    <glyph glyph-name="Ntilde" unicode="&#xd1;" horiz-adv-x="1525" 
d="M197 0v1483h247l711 -1231v1231h174v-1483h-227l-729 1243v-1243h-176zM449 1599q-16 122 36 187t138 65q56 0 113 -23t107.5 -46t88.5 -23q41 0 59.5 21.5t18.5 83.5l112 -6q16 -122 -33 -185t-139 -63q-56 0 -114.5 23.5t-110.5 47t-90 23.5q-80 0 -72 -111z" />
    <glyph glyph-name="Ograve" unicode="&#xd2;" 
d="M102 741q0 166 46 306t132 243t219.5 161t299.5 58q132 0 240 -37.5t184 -104t128 -159.5t76.5 -203t24.5 -235q0 -243 -75.5 -420t-231 -276t-377.5 -99q-168 0 -297 57t-209 160t-120 241.5t-40 307.5zM299 743q0 -294 129 -448t350 -154q220 0 351 153.5t131 457.5
q0 288 -124.5 439.5t-342.5 151.5q-222 0 -358 -156t-136 -444zM524 1870h226l202 -275l-141 -24z" />
    <glyph glyph-name="Oacute" unicode="&#xd3;" 
d="M102 741q0 166 46 306t132 243t219.5 161t299.5 58q132 0 240 -37.5t184 -104t128 -159.5t76.5 -203t24.5 -235q0 -243 -75.5 -420t-231 -276t-377.5 -99q-168 0 -297 57t-209 160t-120 241.5t-40 307.5zM299 743q0 -294 129 -448t350 -154q220 0 351 153.5t131 457.5
q0 288 -124.5 439.5t-342.5 151.5q-222 0 -358 -156t-136 -444zM637 1595l203 275h225l-287 -299z" />
    <glyph glyph-name="Ocircumflex" unicode="&#xd4;" 
d="M102 741q0 166 46 306t132 243t219.5 161t299.5 58q132 0 240 -37.5t184 -104t128 -159.5t76.5 -203t24.5 -235q0 -243 -75.5 -420t-231 -276t-377.5 -99q-168 0 -297 57t-209 160t-120 241.5t-40 307.5zM299 743q0 -294 129 -448t350 -154q220 0 351 153.5t131 457.5
q0 288 -124.5 439.5t-342.5 151.5q-222 0 -358 -156t-136 -444zM475 1589l238 264h161l234 -264l-143 -14l-174 160l-173 -164z" />
    <glyph glyph-name="Otilde" unicode="&#xd5;" 
d="M102 741q0 166 46 306t132 243t219.5 161t299.5 58q132 0 240 -37.5t184 -104t128 -159.5t76.5 -203t24.5 -235q0 -243 -75.5 -420t-231 -276t-377.5 -99q-168 0 -297 57t-209 160t-120 241.5t-40 307.5zM299 743q0 -294 129 -448t350 -154q220 0 351 153.5t131 457.5
q0 288 -124.5 439.5t-342.5 151.5q-222 0 -358 -156t-136 -444zM461 1599q-16 122 36 187t138 65q56 0 113 -23t107.5 -46t88.5 -23q41 0 59.5 21.5t18.5 83.5l113 -6q16 -122 -33 -185t-139 -63q-56 0 -115 23.5t-111 47t-90 23.5q-80 0 -72 -111z" />
    <glyph glyph-name="Odieresis" unicode="&#xd6;" 
d="M102 741q0 166 46 306t132 243t219.5 161t299.5 58q132 0 240 -37.5t184 -104t128 -159.5t76.5 -203t24.5 -235q0 -243 -75.5 -420t-231 -276t-377.5 -99q-168 0 -297 57t-209 160t-120 241.5t-40 307.5zM299 743q0 -294 129 -448t350 -154q220 0 351 153.5t131 457.5
q0 288 -124.5 439.5t-342.5 151.5q-222 0 -358 -156t-136 -444zM446 1722q0 59 35.5 93t96.5 34q58 0 92.5 -34t34.5 -93t-34.5 -92t-92.5 -33q-61 0 -96.5 33t-35.5 92zM877 1722q0 60 34.5 93.5t94.5 33.5t94.5 -33.5t34.5 -93.5t-34.5 -92.5t-94.5 -32.5t-94.5 32.5
t-34.5 92.5z" />
    <glyph glyph-name="multiply" unicode="&#xd7;" horiz-adv-x="1167" 
d="M248 440l217 215l-217 219l121 123l213 -215l217 215l119 -123l-216 -219l216 -215l-119 -125l-217 217l-213 -217z" />
    <glyph glyph-name="Oslash" unicode="&#xd8;" 
d="M102 741q0 166 46 306t132 243t219.5 161t299.5 58q103 0 205 -26l61 143h182l-88 -213q146 -92 219.5 -259t73.5 -384q0 -243 -75.5 -420t-231 -276t-377.5 -99q-107 0 -199 25l-59 -147h-184l86 208q-156 92 -233 267t-77 413zM299 743q0 -357 186 -505l453 1085
q-67 20 -145 20q-222 0 -358 -156t-136 -444zM637 160q68 -19 141 -19q220 0 351 153.5t131 457.5q0 337 -173 489z" />
    <glyph glyph-name="Ugrave" unicode="&#xd9;" horiz-adv-x="1462" 
d="M184 502v981h189v-963q0 -202 88.5 -291.5t271.5 -89.5q184 0 270.5 85.5t86.5 289.5v969h186v-985q0 -264 -141 -393.5t-410 -129.5q-282 0 -411.5 131t-129.5 396zM465 1870h225l203 -275l-141 -24z" />
    <glyph glyph-name="Uacute" unicode="&#xda;" horiz-adv-x="1462" 
d="M184 502v981h189v-963q0 -202 88.5 -291.5t271.5 -89.5q184 0 270.5 85.5t86.5 289.5v969h186v-985q0 -264 -141 -393.5t-410 -129.5q-282 0 -411.5 131t-129.5 396zM578 1595l202 275h226l-287 -299z" />
    <glyph glyph-name="Ucircumflex" unicode="&#xdb;" horiz-adv-x="1462" 
d="M184 502v981h189v-963q0 -202 88.5 -291.5t271.5 -89.5q184 0 270.5 85.5t86.5 289.5v969h186v-985q0 -264 -141 -393.5t-410 -129.5q-282 0 -411.5 131t-129.5 396zM416 1589l237 264h162l234 -264l-144 -14l-174 160l-172 -164z" />
    <glyph glyph-name="Udieresis" unicode="&#xdc;" horiz-adv-x="1462" 
d="M184 502v981h189v-963q0 -202 88.5 -291.5t271.5 -89.5q184 0 270.5 85.5t86.5 289.5v969h186v-985q0 -264 -141 -393.5t-410 -129.5q-282 0 -411.5 131t-129.5 396zM387 1722q0 60 35.5 93.5t95.5 33.5q58 0 92.5 -34t34.5 -93t-34.5 -92t-92.5 -33q-61 0 -96 33t-35 92
zM817 1722q0 60 34.5 93.5t94.5 33.5t94.5 -33.5t34.5 -93.5t-34.5 -92.5t-94.5 -32.5t-94.5 32.5t-34.5 92.5z" />
    <glyph glyph-name="Yacute" unicode="&#xdd;" horiz-adv-x="1159" 
d="M-10 1483h213l389 -723h4l379 723h194l-485 -905v-578h-188v573zM438 1595l203 275h225l-286 -299z" />
    <glyph glyph-name="Thorn" unicode="&#xde;" horiz-adv-x="1261" 
d="M197 0v1483h186v-244h297q110 0 196.5 -24t141.5 -64t91 -96.5t50.5 -117.5t14.5 -132q0 -496 -566 -496h-225v-309h-186zM383 471h211q71 0 123.5 6.5t104 27t84.5 55.5t53 94.5t20 140.5q0 148 -86 216t-268 68h-242v-608z" />
    <glyph glyph-name="germandbls" unicode="&#xdf;" horiz-adv-x="1351" 
d="M166 0v1104q0 124 36 215t102.5 145.5t154 80.5t198.5 26q222 0 339.5 -95.5t117.5 -273.5q0 -71 -18.5 -128.5t-53 -97.5t-73.5 -68t-90 -50v-6q65 -12 118.5 -32t101.5 -53.5t81 -78.5t52 -110.5t19 -147.5q0 -205 -111.5 -329t-310.5 -124q-141 0 -237 66.5
t-121 196.5l123 67q26 -89 73 -134.5t142 -45.5q116 0 183 74t67 219q0 334 -377 334h-82v143h31q80 0 139 22.5t92 62.5t48.5 88t15.5 106q0 249 -287 249q-69 0 -119 -15.5t-89 -51.5t-59 -102t-20 -162v-1094h-186z" />
    <glyph glyph-name="agrave" unicode="&#xe0;" horiz-adv-x="1116" 
d="M115 258q0 358 544 358q31 0 93 -4v103q0 108 -44 161.5t-165 53.5q-105 0 -155.5 -41.5t-68.5 -132.5l-163 30q25 148 122 218.5t281 70.5q198 0 287.5 -84t89.5 -278v-514q0 -46 12 -64t51 -18q23 0 64 12l8 -117q-60 -32 -145 -32q-74 0 -114 34.5t-48 89.5
q-129 -129 -338 -129q-76 0 -134 20t-90.5 49.5t-53 69.5t-27 74t-6.5 70zM307 289q0 -77 38.5 -122.5t137.5 -45.5q78 0 151.5 34.5t119.5 84.5v237q-44 6 -107 6q-53 0 -92.5 -2.5t-89 -14t-81.5 -31.5t-54.5 -57t-22.5 -89zM313 1530h224l198 -334l-135 -25z" />
    <glyph glyph-name="aacute" unicode="&#xe1;" horiz-adv-x="1116" 
d="M115 258q0 358 544 358q31 0 93 -4v103q0 108 -44 161.5t-165 53.5q-105 0 -155.5 -41.5t-68.5 -132.5l-163 30q25 148 122 218.5t281 70.5q198 0 287.5 -84t89.5 -278v-514q0 -46 12 -64t51 -18q23 0 64 12l8 -117q-60 -32 -145 -32q-74 0 -114 34.5t-48 89.5
q-129 -129 -338 -129q-76 0 -134 20t-90.5 49.5t-53 69.5t-27 74t-6.5 70zM307 289q0 -77 38.5 -122.5t137.5 -45.5q78 0 151.5 34.5t119.5 84.5v237q-44 6 -107 6q-53 0 -92.5 -2.5t-89 -14t-81.5 -31.5t-54.5 -57t-22.5 -89zM387 1196l199 334h223l-287 -359z" />
    <glyph glyph-name="acircumflex" unicode="&#xe2;" horiz-adv-x="1116" 
d="M115 258q0 358 544 358q31 0 93 -4v103q0 108 -44 161.5t-165 53.5q-105 0 -155.5 -41.5t-68.5 -132.5l-163 30q25 148 122 218.5t281 70.5q198 0 287.5 -84t89.5 -278v-514q0 -46 12 -64t51 -18q23 0 64 12l8 -117q-60 -32 -145 -32q-74 0 -114 34.5t-48 89.5
q-129 -129 -338 -129q-76 0 -134 20t-90.5 49.5t-53 69.5t-27 74t-6.5 70zM238 1194l229 338h182l232 -338l-142 -12l-182 231l-180 -233zM307 289q0 -77 38.5 -122.5t137.5 -45.5q78 0 151.5 34.5t119.5 84.5v237q-44 6 -107 6q-53 0 -92.5 -2.5t-89 -14t-81.5 -31.5
t-54.5 -57t-22.5 -89z" />
    <glyph glyph-name="atilde" unicode="&#xe3;" horiz-adv-x="1116" 
d="M115 258q0 358 544 358q31 0 93 -4v103q0 108 -44 161.5t-165 53.5q-105 0 -155.5 -41.5t-68.5 -132.5l-163 30q25 148 122 218.5t281 70.5q198 0 287.5 -84t89.5 -278v-514q0 -46 12 -64t51 -18q23 0 64 12l8 -117q-60 -32 -145 -32q-74 0 -114 34.5t-48 89.5
q-129 -129 -338 -129q-76 0 -134 20t-90.5 49.5t-53 69.5t-27 74t-6.5 70zM219 1212q-16 121 37 187.5t137 66.5q56 0 113 -23.5t107.5 -47t88.5 -23.5q41 0 59.5 21.5t18.5 83.5l113 -4q16 -121 -34 -185.5t-138 -64.5q-56 0 -114.5 23.5t-110.5 47t-90 23.5
q-79 0 -72 -111zM307 289q0 -77 38.5 -122.5t137.5 -45.5q78 0 151.5 34.5t119.5 84.5v237q-44 6 -107 6q-53 0 -92.5 -2.5t-89 -14t-81.5 -31.5t-54.5 -57t-22.5 -89z" />
    <glyph glyph-name="adieresis" unicode="&#xe4;" horiz-adv-x="1116" 
d="M115 258q0 358 544 358q31 0 93 -4v103q0 108 -44 161.5t-165 53.5q-105 0 -155.5 -41.5t-68.5 -132.5l-163 30q25 148 122 218.5t281 70.5q198 0 287.5 -84t89.5 -278v-514q0 -46 12 -64t51 -18q23 0 64 12l8 -117q-60 -32 -145 -32q-74 0 -114 34.5t-48 89.5
q-129 -129 -338 -129q-76 0 -134 20t-90.5 49.5t-53 69.5t-27 74t-6.5 70zM213 1376q0 57 35.5 91t95.5 34q57 0 92 -34t35 -91q0 -59 -34.5 -93t-92.5 -34q-60 0 -95.5 33.5t-35.5 93.5zM307 289q0 -77 38.5 -122.5t137.5 -45.5q78 0 151.5 34.5t119.5 84.5v237
q-44 6 -107 6q-53 0 -92.5 -2.5t-89 -14t-81.5 -31.5t-54.5 -57t-22.5 -89zM643 1376q0 57 34.5 91t94.5 34t94.5 -34t34.5 -91q0 -60 -34.5 -93.5t-94.5 -33.5t-94.5 33.5t-34.5 93.5z" />
    <glyph glyph-name="aring" unicode="&#xe5;" horiz-adv-x="1116" 
d="M115 258q0 358 544 358q31 0 93 -4v103q0 108 -44 161.5t-165 53.5q-105 0 -155.5 -41.5t-68.5 -132.5l-163 30q25 148 122 218.5t281 70.5q198 0 287.5 -84t89.5 -278v-514q0 -46 12 -64t51 -18q23 0 64 12l8 -117q-60 -32 -145 -32q-74 0 -114 34.5t-48 89.5
q-129 -129 -338 -129q-76 0 -134 20t-90.5 49.5t-53 69.5t-27 74t-6.5 70zM307 289q0 -77 38.5 -122.5t137.5 -45.5q78 0 151.5 34.5t119.5 84.5v237q-44 6 -107 6q-53 0 -92.5 -2.5t-89 -14t-81.5 -31.5t-54.5 -57t-22.5 -89zM342 1372q0 101 61.5 156t153.5 55
q97 0 158 -51.5t61 -151.5q0 -97 -59 -151.5t-160 -54.5q-99 0 -157 52.5t-58 145.5zM455 1376q0 -100 102 -100q49 0 74.5 28t25.5 76q0 99 -100 99q-45 0 -73.5 -27t-28.5 -76z" />
    <glyph glyph-name="ae" unicode="&#xe6;" horiz-adv-x="1759" 
d="M115 258q0 82 27.5 144.5t72.5 101.5t113 64t140 35.5t161 12.5q84 0 123 -2v101q0 107 -45.5 161t-165.5 54q-103 0 -153.5 -42t-68.5 -132l-163 30q25 151 122 220t277 69q133 0 207.5 -42.5t111.5 -135.5q129 178 371 178q105 0 185.5 -36.5t128.5 -101.5t72 -149
t24 -186q0 -72 -8 -127h-709q2 -101 24.5 -170t64 -106t92 -52.5t118.5 -15.5q106 0 162 45.5t80 140.5l166 -36q-31 -150 -143 -228t-277 -78q-258 0 -373 160q-83 -81 -192.5 -120.5t-217.5 -39.5q-80 0 -141.5 20t-95.5 49.5t-55.5 69.5t-28 74t-6.5 70zM307 287
q0 -76 38.5 -121t139.5 -45q176 0 303 133q-33 94 -36 229q-39 2 -121 2q-324 0 -324 -198zM940 616h522q9 308 -239 308q-112 0 -194 -79t-89 -229z" />
    <glyph glyph-name="ccedilla" unicode="&#xe7;" horiz-adv-x="1101" 
d="M100 516q0 274 131.5 416.5t372.5 142.5q181 0 288.5 -93.5t117.5 -272.5l-179 -25q-12 119 -69 177.5t-166 58.5q-49 0 -90.5 -10.5t-81.5 -37.5t-67.5 -69t-44.5 -109.5t-17 -154.5q0 -114 22 -195t63 -126.5t92.5 -66t117.5 -20.5q223 0 262 225l164 -34
q-24 -158 -127.5 -245t-251.5 -100l-8 -67q162 -31 162 -180q0 -95 -63.5 -150t-162.5 -55q-91 0 -166 41l35 104q54 -30 115 -30q46 0 72 25t26 67q0 51 -34.5 72.5t-114.5 23.5l20 152q-145 11 -240.5 84.5t-136.5 186.5t-41 265z" />
    <glyph glyph-name="egrave" unicode="&#xe8;" horiz-adv-x="1118" 
d="M100 524q0 140 39 247.5t107.5 173t156.5 98t193 32.5q108 0 189.5 -34t130.5 -96t73.5 -143t24.5 -181q0 -73 -8 -138h-709q2 -98 24.5 -167.5t63.5 -109t91.5 -57.5t115.5 -18q109 0 166.5 46t81.5 140l164 -36q-31 -150 -142.5 -228t-275.5 -78q-108 0 -192.5 29.5
t-139 80t-90 122t-50 149t-14.5 168.5zM299 631h522q0 293 -237 293q-114 0 -196 -73.5t-89 -219.5zM344 1530h223l199 -334l-135 -25z" />
    <glyph glyph-name="eacute" unicode="&#xe9;" horiz-adv-x="1118" 
d="M100 524q0 140 39 247.5t107.5 173t156.5 98t193 32.5q108 0 189.5 -34t130.5 -96t73.5 -143t24.5 -181q0 -73 -8 -138h-709q2 -98 24.5 -167.5t63.5 -109t91.5 -57.5t115.5 -18q109 0 166.5 46t81.5 140l164 -36q-31 -150 -142.5 -228t-275.5 -78q-108 0 -192.5 29.5
t-139 80t-90 122t-50 149t-14.5 168.5zM299 631h522q0 293 -237 293q-114 0 -196 -73.5t-89 -219.5zM418 1196l198 334h224l-287 -359z" />
    <glyph glyph-name="ecircumflex" unicode="&#xea;" horiz-adv-x="1118" 
d="M100 524q0 140 39 247.5t107.5 173t156.5 98t193 32.5q108 0 189.5 -34t130.5 -96t73.5 -143t24.5 -181q0 -73 -8 -138h-709q2 -98 24.5 -167.5t63.5 -109t91.5 -57.5t115.5 -18q109 0 166.5 46t81.5 140l164 -36q-31 -150 -142.5 -228t-275.5 -78q-108 0 -192.5 29.5
t-139 80t-90 122t-50 149t-14.5 168.5zM268 1194l230 338h182l231 -338l-141 -12l-182 231l-180 -233zM299 631h522q0 293 -237 293q-114 0 -196 -73.5t-89 -219.5z" />
    <glyph glyph-name="edieresis" unicode="&#xeb;" horiz-adv-x="1118" 
d="M100 524q0 140 39 247.5t107.5 173t156.5 98t193 32.5q108 0 189.5 -34t130.5 -96t73.5 -143t24.5 -181q0 -73 -8 -138h-709q2 -98 24.5 -167.5t63.5 -109t91.5 -57.5t115.5 -18q109 0 166.5 46t81.5 140l164 -36q-31 -150 -142.5 -228t-275.5 -78q-108 0 -192.5 29.5
t-139 80t-90 122t-50 149t-14.5 168.5zM244 1376q0 57 35.5 91t95.5 34q57 0 92 -34t35 -91q0 -59 -34.5 -93t-92.5 -34q-60 0 -95.5 33.5t-35.5 93.5zM299 631h522q0 293 -237 293q-114 0 -196 -73.5t-89 -219.5zM674 1376q0 57 34.5 91t94.5 34t94.5 -34t34.5 -91
q0 -60 -34.5 -93.5t-94.5 -33.5t-94.5 33.5t-34.5 93.5z" />
    <glyph glyph-name="igrave" unicode="&#xec;" horiz-adv-x="509" 
d="M14 1530h224l198 -334l-135 -25zM166 0v1053h186v-1053h-186z" />
    <glyph glyph-name="iacute" unicode="&#xed;" horiz-adv-x="509" 
d="M88 1196l199 334h223l-287 -359zM166 0v1053h186v-1053h-186z" />
    <glyph glyph-name="icircumflex" unicode="&#xee;" horiz-adv-x="509" 
d="M-61 1194l229 338h182l232 -338l-142 -12l-182 231l-180 -233zM166 0v1053h186v-1053h-186z" />
    <glyph glyph-name="idieresis" unicode="&#xef;" horiz-adv-x="509" 
d="M-86 1376q0 57 35.5 91t95.5 34q57 0 92 -34t35 -91q0 -59 -34.5 -93t-92.5 -34q-60 0 -95.5 33.5t-35.5 93.5zM166 0v1053h186v-1053h-186zM344 1376q0 57 34.5 91t94.5 34t94.5 -34t34.5 -91q0 -60 -34.5 -93.5t-94.5 -33.5t-94.5 33.5t-34.5 93.5z" />
    <glyph glyph-name="eth" unicode="&#xf0;" horiz-adv-x="1177" 
d="M100 512q0 107 30 200t87.5 164t148.5 111.5t205 40.5q167 0 291 -80q-60 187 -174 301l-196 -112l-76 123l149 83q-118 66 -264 87l61 141q215 -30 367 -133l213 121l74 -125l-170 -97q231 -245 231 -692q0 -83 -10 -159.5t-31.5 -154t-60.5 -140t-93 -112t-132.5 -77
t-174.5 -27.5q-245 0 -360 140t-115 397zM293 516q0 -86 13 -152.5t44 -123t88.5 -87t139.5 -30.5q85 0 148 41t98.5 113.5t52 160.5t16.5 193q0 67 -6 135q-39 48 -121 81.5t-168 33.5q-152 0 -228.5 -93t-76.5 -272z" />
    <glyph glyph-name="ntilde" unicode="&#xf1;" horiz-adv-x="1191" 
d="M166 0v1053h164l10 -125q186 147 379 147q168 0 245.5 -88.5t77.5 -271.5v-715h-186v686q0 114 -45.5 169.5t-151.5 55.5q-82 0 -169 -40.5t-138 -86.5v-784h-186zM272 1212q-16 121 37 187.5t137 66.5q56 0 113.5 -23.5t108 -47t88.5 -23.5q41 0 59.5 21.5t18.5 83.5
l112 -4q16 -121 -34 -185.5t-138 -64.5q-56 0 -114.5 23.5t-110.5 47t-90 23.5q-79 0 -72 -111z" />
    <glyph glyph-name="ograve" unicode="&#xf2;" horiz-adv-x="1183" 
d="M100 522q0 258 132 405.5t380 147.5q123 0 214.5 -38.5t147 -109.5t82.5 -166t27 -214q0 -132 -28.5 -235t-87 -179.5t-155 -117t-226.5 -40.5q-486 0 -486 547zM293 530q0 -209 74 -307t229 -98q142 0 217.5 96.5t75.5 313.5q0 210 -71 298.5t-214 88.5q-147 0 -229 -95
t-82 -297zM360 1530h224l198 -334l-135 -25z" />
    <glyph glyph-name="oacute" unicode="&#xf3;" horiz-adv-x="1183" 
d="M100 522q0 258 132 405.5t380 147.5q123 0 214.5 -38.5t147 -109.5t82.5 -166t27 -214q0 -132 -28.5 -235t-87 -179.5t-155 -117t-226.5 -40.5q-486 0 -486 547zM293 530q0 -209 74 -307t229 -98q142 0 217.5 96.5t75.5 313.5q0 210 -71 298.5t-214 88.5q-147 0 -229 -95
t-82 -297zM434 1196l199 334h223l-287 -359z" />
    <glyph glyph-name="ocircumflex" unicode="&#xf4;" horiz-adv-x="1183" 
d="M100 522q0 258 132 405.5t380 147.5q123 0 214.5 -38.5t147 -109.5t82.5 -166t27 -214q0 -132 -28.5 -235t-87 -179.5t-155 -117t-226.5 -40.5q-486 0 -486 547zM285 1194l229 338h182l232 -338l-142 -12l-182 231l-180 -233zM293 530q0 -209 74 -307t229 -98
q142 0 217.5 96.5t75.5 313.5q0 210 -71 298.5t-214 88.5q-147 0 -229 -95t-82 -297z" />
    <glyph glyph-name="otilde" unicode="&#xf5;" horiz-adv-x="1183" 
d="M100 522q0 258 132 405.5t380 147.5q123 0 214.5 -38.5t147 -109.5t82.5 -166t27 -214q0 -132 -28.5 -235t-87 -179.5t-155 -117t-226.5 -40.5q-486 0 -486 547zM266 1212q-16 121 37 187.5t137 66.5q56 0 113.5 -23.5t108 -47t88.5 -23.5q41 0 59 21t18 84l113 -4
q16 -121 -34 -185.5t-138 -64.5q-56 0 -114.5 23.5t-110.5 47t-90 23.5q-79 0 -72 -111zM293 530q0 -209 74 -307t229 -98q142 0 217.5 96.5t75.5 313.5q0 210 -71 298.5t-214 88.5q-147 0 -229 -95t-82 -297z" />
    <glyph glyph-name="odieresis" unicode="&#xf6;" horiz-adv-x="1183" 
d="M100 522q0 258 132 405.5t380 147.5q123 0 214.5 -38.5t147 -109.5t82.5 -166t27 -214q0 -132 -28.5 -235t-87 -179.5t-155 -117t-226.5 -40.5q-486 0 -486 547zM260 1376q0 57 35.5 91t95.5 34q57 0 92 -34t35 -91q0 -59 -34.5 -93t-92.5 -34q-60 0 -95.5 33.5
t-35.5 93.5zM293 530q0 -209 74 -307t229 -98q142 0 217.5 96.5t75.5 313.5q0 210 -71 298.5t-214 88.5q-147 0 -229 -95t-82 -297zM690 1376q0 57 34.5 91t94.5 34t94.5 -34t34.5 -91q0 -60 -34.5 -93.5t-94.5 -33.5t-94.5 33.5t-34.5 93.5z" />
    <glyph glyph-name="divide" unicode="&#xf7;" horiz-adv-x="1167" 
d="M197 571v172h772v-172h-772zM440 340q0 60 34 93.5t97 33.5q65 0 98 -33t33 -94q0 -127 -131 -127t-131 127zM440 979q0 60 34 93.5t97 33.5q65 0 98 -33t33 -94q0 -129 -131 -129t-131 129z" />
    <glyph glyph-name="oslash" unicode="&#xf8;" horiz-adv-x="1183" 
d="M100 522q0 258 132 405.5t380 147.5q66 0 125 -12l62 137h174l-86 -196q196 -126 196 -457q0 -132 -28.5 -235t-87 -179.5t-155 -117t-226.5 -40.5q-84 0 -148 15l-59 -137h-176l88 200q-191 132 -191 469zM293 530q0 -204 74 -307l305 692q-35 7 -68 7q-147 0 -229 -95
t-82 -297zM504 135q34 -10 92 -10q142 0 217.5 96.5t75.5 313.5q0 211 -76 303z" />
    <glyph glyph-name="ugrave" unicode="&#xf9;" horiz-adv-x="1189" 
d="M162 338v715h186v-686q0 -118 40 -172t151 -54q81 0 167 41.5t138 87.5v783h186v-1053h-162l-12 121q-175 -141 -373 -141q-165 0 -243 88.5t-78 269.5zM356 1530h224l198 -334l-135 -25z" />
    <glyph glyph-name="uacute" unicode="&#xfa;" horiz-adv-x="1189" 
d="M162 338v715h186v-686q0 -118 40 -172t151 -54q81 0 167 41.5t138 87.5v783h186v-1053h-162l-12 121q-175 -141 -373 -141q-165 0 -243 88.5t-78 269.5zM430 1196l199 334h223l-287 -359z" />
    <glyph glyph-name="ucircumflex" unicode="&#xfb;" horiz-adv-x="1189" 
d="M162 338v715h186v-686q0 -118 40 -172t151 -54q81 0 167 41.5t138 87.5v783h186v-1053h-162l-12 121q-175 -141 -373 -141q-165 0 -243 88.5t-78 269.5zM281 1194l229 338h182l232 -338l-142 -12l-182 231l-180 -233z" />
    <glyph glyph-name="udieresis" unicode="&#xfc;" horiz-adv-x="1189" 
d="M162 338v715h186v-686q0 -118 40 -172t151 -54q81 0 167 41.5t138 87.5v783h186v-1053h-162l-12 121q-175 -141 -373 -141q-165 0 -243 88.5t-78 269.5zM256 1376q0 57 35.5 91t95.5 34q57 0 92 -34t35 -91q0 -59 -34.5 -93t-92.5 -34q-60 0 -95.5 33.5t-35.5 93.5z
M686 1376q0 57 34.5 91t94.5 34t94.5 -34t34.5 -91q0 -60 -34.5 -93.5t-94.5 -33.5t-94.5 33.5t-34.5 93.5z" />
    <glyph glyph-name="yacute" unicode="&#xfd;" horiz-adv-x="993" 
d="M-20 -418l22 146q92 -33 168 -33q61 0 108 37.5t80 126.5l50 129l-392 1065h207l279 -836h2l289 836h190l-455 -1207q-61 -164 -141.5 -233.5t-204.5 -69.5q-113 0 -202 39zM332 1196l198 334h224l-287 -359z" />
    <glyph glyph-name="thorn" unicode="&#xfe;" horiz-adv-x="1189" 
d="M166 -434v1980h184v-610q156 139 357 139q84 0 151.5 -28t120.5 -88t82 -163.5t29 -244.5q0 -149 -34.5 -262t-96 -180.5t-140.5 -100.5t-174 -33q-163 0 -297 107h-2v-516h-180zM352 242q1 -1 20 -14t26 -17.5t28 -17t34 -18.5t35.5 -15.5t40.5 -14.5t41.5 -8.5
t45.5 -3.5q274 0 274 420q0 189 -60 277t-190 88q-79 0 -161.5 -40.5t-133.5 -91.5v-544z" />
    <glyph glyph-name="ydieresis" unicode="&#xff;" horiz-adv-x="993" 
d="M-20 -418l22 146q92 -33 168 -33q61 0 108 37.5t80 126.5l50 129l-392 1065h207l279 -836h2l289 836h190l-455 -1207q-61 -164 -141.5 -233.5t-204.5 -69.5q-113 0 -202 39zM158 1376q0 57 35.5 91t95.5 34q57 0 92 -34t35 -91q0 -59 -34.5 -93t-92.5 -34
q-60 0 -95.5 33.5t-35.5 93.5zM588 1376q0 57 34.5 91t94.5 34t94.5 -34t34.5 -91q0 -60 -34.5 -93.5t-94.5 -33.5t-94.5 33.5t-34.5 93.5z" />
    <glyph glyph-name="OE" unicode="&#x152;" horiz-adv-x="2230" 
d="M102 741q0 223 78.5 395t237 272.5t377.5 100.5q320 0 477 -233v207h846v-154h-678v-500h635v-163h-635v-502h704v-164h-872v227q-162 -252 -504 -252q-168 0 -297 57t-209 160t-120 241.5t-40 307.5zM299 743q0 -292 129 -447t350 -155q105 0 192 36t152.5 108.5
t101.5 189.5t36 270q0 292 -124.5 445t-342.5 153q-222 0 -358 -156t-136 -444z" />
    <glyph glyph-name="oe" unicode="&#x153;" horiz-adv-x="1894" 
d="M100 520q0 260 131 407.5t375 147.5q272 0 381 -213q59 104 159.5 157.5t231.5 53.5q207 0 309.5 -124.5t102.5 -332.5q0 -78 -8 -133h-709q2 -100 25 -170t64.5 -109t93 -56t118.5 -17q102 0 160 46t82 140l164 -36q-31 -148 -143 -227t-269 -79q-289 0 -391 213
q-115 -213 -395 -213q-131 0 -226.5 41t-150 116.5t-80 171t-25.5 216.5zM293 528q0 -208 74 -305.5t229 -97.5q143 0 218 96.5t75 313.5q0 212 -70.5 299.5t-214.5 87.5q-311 0 -311 -394zM1075 631h522q0 145 -57.5 219t-181.5 74q-54 0 -102.5 -17.5t-88.5 -52t-65 -92.5
t-27 -131z" />
    <glyph glyph-name="Ydieresis" unicode="&#x178;" horiz-adv-x="1159" 
d="M-10 1483h213l389 -723h4l379 723h194l-485 -905v-578h-188v573zM248 1722q0 60 35.5 93.5t95.5 33.5q58 0 92.5 -34t34.5 -93t-34.5 -92t-92.5 -33q-61 0 -96 33t-35 92zM678 1722q0 60 34.5 93.5t94.5 33.5t94.5 -33.5t34.5 -93.5t-34.5 -92.5t-94.5 -32.5t-94.5 32.5
t-34.5 92.5z" />
    <glyph glyph-name="circumflex" unicode="&#x2c6;" horiz-adv-x="1024" 
d="M193 1194l229 338h182l232 -338l-142 -12l-182 231l-180 -233z" />
    <glyph glyph-name="tilde" unicode="&#x2dc;" horiz-adv-x="1024" 
d="M174 1212q-16 121 37 187.5t137 66.5q56 0 113 -23.5t107.5 -47t88.5 -23.5q41 0 59.5 21.5t18.5 83.5l113 -4q16 -121 -34 -185.5t-138 -64.5q-56 0 -115 23.5t-111 47t-90 23.5q-37 0 -56 -24.5t-15 -86.5z" />
    <glyph glyph-name="uni2000" unicode="&#x2000;" horiz-adv-x="935" 
 />
    <glyph glyph-name="uni2001" unicode="&#x2001;" horiz-adv-x="1870" 
 />
    <glyph glyph-name="uni2002" unicode="&#x2002;" horiz-adv-x="935" 
 />
    <glyph glyph-name="uni2003" unicode="&#x2003;" horiz-adv-x="1870" 
 />
    <glyph glyph-name="uni2004" unicode="&#x2004;" horiz-adv-x="623" 
 />
    <glyph glyph-name="uni2005" unicode="&#x2005;" horiz-adv-x="467" 
 />
    <glyph glyph-name="uni2006" unicode="&#x2006;" horiz-adv-x="311" 
 />
    <glyph glyph-name="uni2007" unicode="&#x2007;" horiz-adv-x="311" 
 />
    <glyph glyph-name="uni2008" unicode="&#x2008;" horiz-adv-x="233" 
 />
    <glyph glyph-name="uni2009" unicode="&#x2009;" horiz-adv-x="374" 
 />
    <glyph glyph-name="uni200A" unicode="&#x200a;" horiz-adv-x="103" 
 />
    <glyph glyph-name="uni2010" unicode="&#x2010;" horiz-adv-x="647" 
d="M41 514v178h555v-178h-555z" />
    <glyph glyph-name="uni2011" unicode="&#x2011;" horiz-adv-x="647" 
d="M41 514v178h555v-178h-555z" />
    <glyph glyph-name="figuredash" unicode="&#x2012;" horiz-adv-x="647" 
d="M41 514v178h555v-178h-555z" />
    <glyph glyph-name="endash" unicode="&#x2013;" horiz-adv-x="1024" 
d="M0 502v149h1022v-149h-1022z" />
    <glyph glyph-name="emdash" unicode="&#x2014;" horiz-adv-x="2048" 
d="M0 502v149h2046v-149h-2046z" />
    <glyph glyph-name="quoteleft" unicode="&#x2018;" horiz-adv-x="387" 
d="M66 1133l167 464l142 -18l-109 -446h-200z" />
    <glyph glyph-name="quoteright" unicode="&#x2019;" horiz-adv-x="387" 
d="M49 1124l109 447h200l-168 -465z" />
    <glyph glyph-name="quotesinglbase" unicode="&#x201a;" horiz-adv-x="368" 
d="M23 -266l108 446h201l-168 -465z" />
    <glyph glyph-name="quotedblleft" unicode="&#x201c;" horiz-adv-x="702" 
d="M66 1133l167 464l142 -18l-109 -446h-200zM383 1133l168 464l141 -18l-108 -446h-201z" />
    <glyph glyph-name="quotedblright" unicode="&#x201d;" horiz-adv-x="702" 
d="M49 1124l109 447h200l-168 -465zM365 1124l108 447h201l-168 -465z" />
    <glyph glyph-name="quotedblbase" unicode="&#x201e;" horiz-adv-x="686" 
d="M23 -266l108 446h201l-168 -465zM338 -266l108 446h201l-168 -465z" />
    <glyph glyph-name="bullet" unicode="&#x2022;" horiz-adv-x="802" 
d="M121 573q0 138 71.5 206.5t208.5 68.5t209 -68.5t72 -206.5t-72 -207t-209 -69t-208.5 69t-71.5 207z" />
    <glyph glyph-name="ellipsis" unicode="&#x2026;" horiz-adv-x="1306" 
d="M92 113q0 137 139 137q140 0 140 -137q0 -138 -140 -138q-139 0 -139 138zM516 113q0 137 139 137q140 0 140 -137q0 -138 -140 -138q-139 0 -139 138zM936 113q0 137 139 137t139 -137q0 -138 -139 -138t-139 138z" />
    <glyph glyph-name="uni202F" unicode="&#x202f;" horiz-adv-x="374" 
 />
    <glyph glyph-name="guilsinglleft" unicode="&#x2039;" horiz-adv-x="569" 
d="M117 530l182 306h168l-172 -299l168 -326h-168z" />
    <glyph glyph-name="guilsinglright" unicode="&#x203a;" horiz-adv-x="569" 
d="M100 211l172 307l-172 318h168l181 -316l-181 -309h-168z" />
    <glyph glyph-name="uni205F" unicode="&#x205f;" horiz-adv-x="467" 
 />
    <glyph glyph-name="Euro" unicode="&#x20ac;" horiz-adv-x="1253" 
d="M23 512l22 139h131v68q0 63 2 94h-112l22 139h105q21 148 74.5 257.5t130.5 174t167 95t195 30.5q199 0 317 -108t135 -336l-170 -16q-21 163 -82.5 230t-203.5 67q-322 0 -377 -394h461l-25 -139h-450v-86q0 -51 2 -76h430l-25 -139h-395q30 -192 115.5 -283.5
t244.5 -91.5q134 0 205.5 64.5t101.5 206.5l160 -37q-12 -87 -46 -156.5t-80 -113.5t-105.5 -73t-120.5 -41t-127 -12q-105 0 -191.5 28t-159 89t-120.5 167.5t-66 252.5h-165z" />
    <glyph glyph-name="trademark" unicode="&#x2122;" horiz-adv-x="1703" 
d="M53 1372v111h652v-111h-265v-659h-123v659h-264zM815 713v770h146l235 -606l242 606h133v-770h-113v547l-219 -547h-94l-215 549v-549h-115z" />
    <glyph glyph-name="uni25FC" unicode="&#x25fc;" horiz-adv-x="1054" 
d="M0 0v1055h1055v-1055h-1055z" />
    </font>
</defs>
</svg>
